<?xml version="1.0" encoding="UTF-8" standalone="no"?>
<svg
   xmlns:dc="http://purl.org/dc/elements/1.1/"
   xmlns:cc="http://creativecommons.org/ns#"
   xmlns:rdf="http://www.w3.org/1999/02/22-rdf-syntax-ns#"
   xmlns:svg="http://www.w3.org/2000/svg"
   xmlns="http://www.w3.org/2000/svg"
   viewBox="0 0 86.666664 86.666664"
   height="86.666664"
   width="86.666664"
   xml:space="preserve"
   version="1.1"><defs
     id="defs6"><clipPath
       id="clipPath18"
       clipPathUnits="userSpaceOnUse"><path
         id="path16"
         d="M 0,65 H 65 V 0 H 0 Z" /></clipPath></defs><g

     transform="matrix(1.3333333,0,0,-1.3333333,0,86.666667)"
     id="g10"><g
       id="g12"><g
         clip-path="url(#clipPath18)"
         id="g14"><g
           transform="translate(62.5,32.5)"
           id="g20"><path
             id="path22"
             style="fill:none;stroke:#00723f;stroke-width:5;stroke-linecap:round;stroke-linejoin:miter;stroke-miterlimit:10;stroke-dasharray:none;stroke-opacity:1"
             d="m 0,0 c 0,-16.568 -13.432,-30 -30,-30 -16.568,0 -30,13.432 -30,30 0,16.568 13.432,30 30,30 C -13.432,30 0,16.568 0,0 Z" /></g><g
           transform="translate(37.1665,31.5)"
           id="g24"><path
             id="path26"
             style="fill:#00723f;fill-opacity:1;fill-rule:nonzero;stroke:none"
             d="m 0,0 c 0,-2.577 -2.089,-4.667 -4.667,-4.667 -2.577,0 -4.666,2.09 -4.666,4.667 0,2.577 2.089,4.667 4.666,4.667 C -2.089,4.667 0,2.577 0,0" /></g><g
           transform="translate(32.5,31.5)"
           id="g28"><path
             id="path30"
             style="fill:none;stroke:#00723f;stroke-width:5;stroke-linecap:round;stroke-linejoin:miter;stroke-miterlimit:10;stroke-dasharray:none;stroke-opacity:1"
             d="M 0,0 V 20" /></g><g
           transform="translate(32.5493,30.4346)"
           id="g32"><path
             id="path34"
             style="fill:none;stroke:#00723f;stroke-width:5;stroke-linecap:round;stroke-linejoin:miter;stroke-miterlimit:10;stroke-dasharray:none;stroke-opacity:1"
             d="M 0,0 11.925,9.097" /></g></g></g></g></svg>