<svg width="25" height="26" viewBox="0 0 25 26" fill="none" xmlns="http://www.w3.org/2000/svg">
<g clip-path="url(#clip0_201_313)">
<path d="M23.6984 23.3917H23.3322V12.1309C23.3322 11.619 22.9157 11.2026 22.4038 11.2026H15.7588V2.24536C15.7588 1.5603 15.2014 1.00293 14.5164 1.00293H2.9103C2.22524 1.00293 1.66787 1.5603 1.66787 2.24536V23.3916H1.30161C0.583887 23.3916 0 23.9755 0 24.6933C0 25.4109 0.583887 25.9948 1.30156 25.9948H23.6984C24.4161 25.9948 25 25.4109 25 24.6933C25 23.9755 24.4161 23.3917 23.6984 23.3917ZM2.40024 2.24536C2.40024 1.96411 2.62905 1.73535 2.91025 1.73535H14.5163C14.7976 1.73535 15.0263 1.96416 15.0263 2.24536V11.2026H11.9003C11.3884 11.2026 10.9719 11.619 10.9719 12.1309V20.5529C10.9719 20.7552 11.1358 20.9191 11.3381 20.9191C11.5404 20.9191 11.7043 20.7552 11.7043 20.5529V12.1309C11.7043 12.0229 11.7922 11.935 11.9003 11.935H22.4038C22.5119 11.935 22.5998 12.0229 22.5998 12.1309V23.3916H11.7043V22.265C11.7043 22.0627 11.5404 21.8988 11.3381 21.8988C11.1358 21.8988 10.9719 22.0627 10.9719 22.265V23.3916H2.40024V2.24536ZM23.6984 25.2624H1.30156C0.987695 25.2624 0.732422 25.0071 0.732422 24.6933C0.732422 24.3794 0.987744 24.1241 1.30156 24.1241H23.6984C24.0123 24.1241 24.2676 24.3794 24.2676 24.6933C24.2676 25.0071 24.0123 25.2624 23.6984 25.2624Z" fill="#F6A500"/>
<path d="M5.72891 3.23462H4.22642C3.82627 3.23462 3.50073 3.56016 3.50073 3.9603V5.4628C3.50073 5.86294 3.82627 6.18848 4.22642 6.18848H5.72891C6.12905 6.18848 6.45459 5.86294 6.45459 5.4628V3.9603C6.45459 3.56016 6.12905 3.23462 5.72891 3.23462V3.23462ZM5.72217 5.45611H4.23311V3.96704H5.72217V5.45611Z" fill="#F6A500"/>
<path d="M9.46456 3.23462H7.96202C7.56193 3.23462 7.23639 3.56016 7.23639 3.9603V5.4628C7.23639 5.86294 7.56193 6.18848 7.96202 6.18848H9.46456C9.86471 6.18848 10.1902 5.86294 10.1902 5.4628V3.9603C10.1902 3.56016 9.86471 3.23462 9.46456 3.23462ZM9.45782 5.45611H7.96876V3.96704H9.45782V5.45611Z" fill="#F6A500"/>
<path d="M11.6977 6.18852H13.2002C13.6004 6.18852 13.9259 5.86299 13.9259 5.46284V3.9603C13.9259 3.56016 13.6004 3.23462 13.2002 3.23462H11.6977C11.2975 3.23462 10.972 3.56016 10.972 3.9603V5.46279C10.972 5.86299 11.2975 6.18852 11.6977 6.18852V6.18852ZM11.7044 3.96704H13.1935V5.4561H11.7044V3.96704Z" fill="#F6A500"/>
<path d="M5.72891 7.80615H4.22642C3.82627 7.80615 3.50073 8.13169 3.50073 8.53184V10.0343C3.50073 10.4345 3.82627 10.76 4.22642 10.76H5.72891C6.12905 10.76 6.45459 10.4345 6.45459 10.0343V8.53184C6.45459 8.13169 6.12905 7.80615 5.72891 7.80615V7.80615ZM5.72217 10.0276H4.23311V8.53857H5.72217V10.0276Z" fill="#F6A500"/>
<path d="M9.46456 7.80615H7.96202C7.56193 7.80615 7.23639 8.13169 7.23639 8.53184V10.0343C7.23639 10.4345 7.56193 10.76 7.96202 10.76H9.46456C9.86471 10.76 10.1902 10.4345 10.1902 10.0343V8.53184C10.1902 8.13169 9.86471 7.80615 9.46456 7.80615ZM9.45782 10.0276H7.96876V8.53857H9.45782V10.0276Z" fill="#F6A500"/>
<path d="M11.6977 10.76H13.2002C13.6004 10.76 13.9259 10.4345 13.9259 10.0343V8.53184C13.9259 8.13169 13.6004 7.80615 13.2002 7.80615H11.6977C11.2975 7.80615 10.972 8.13169 10.972 8.53184V10.0343C10.972 10.4345 11.2975 10.76 11.6977 10.76ZM11.7044 8.53853H13.1935V10.0276H11.7044V8.53853Z" fill="#F6A500"/>
<path d="M5.72891 12.3777H4.22642C3.82627 12.3777 3.50073 12.7032 3.50073 13.1034V14.6059C3.50073 15.006 3.82627 15.3316 4.22642 15.3316H5.72891C6.12905 15.3316 6.45459 15.006 6.45459 14.6059V13.1034C6.45459 12.7032 6.12905 12.3777 5.72891 12.3777V12.3777ZM5.72217 14.5992H4.23311V13.1101H5.72217V14.5992Z" fill="#F6A500"/>
<path d="M9.46456 12.3777H7.96202C7.56193 12.3777 7.23639 12.7032 7.23639 13.1034V14.6059C7.23639 15.006 7.56193 15.3316 7.96202 15.3316H9.46456C9.86471 15.3316 10.1902 15.006 10.1902 14.6059V13.1034C10.1902 12.7032 9.86471 12.3777 9.46456 12.3777V12.3777ZM9.45782 14.5992H7.96876V13.1101H9.45782V14.5992Z" fill="#F6A500"/>
<path d="M5.72891 16.9492H4.22642C3.82627 16.9492 3.50073 17.2748 3.50073 17.6749V19.1774C3.50073 19.5775 3.82627 19.9031 4.22642 19.9031H5.72891C6.12905 19.9031 6.45459 19.5775 6.45459 19.1774V17.6749C6.45459 17.2748 6.12905 16.9492 5.72891 16.9492V16.9492ZM5.72217 19.1707H4.23311V17.6816H5.72217V19.1707Z" fill="#F6A500"/>
<path d="M9.46456 16.9492H7.96202C7.56193 16.9492 7.23639 17.2748 7.23639 17.6749V19.1774C7.23639 19.5775 7.56193 19.9031 7.96202 19.9031H9.46456C9.86471 19.9031 10.1902 19.5775 10.1902 19.1774V17.6749C10.1902 17.2748 9.86471 16.9492 9.46456 16.9492ZM9.45782 19.1707H7.96876V17.6816H9.45782V19.1707Z" fill="#F6A500"/>
<path d="M13.1913 15.788H14.6142C14.9593 15.788 15.24 15.5072 15.24 15.1622V13.7754C15.24 13.4304 14.9593 13.1497 14.6142 13.1497H13.1913C12.8463 13.1497 12.5656 13.4304 12.5656 13.7754V15.1622C12.5656 15.5072 12.8463 15.788 13.1913 15.788ZM13.298 13.882H14.5076V15.0555H13.298V13.882Z" fill="#F6A500"/>
<path d="M13.1913 18.7816H14.6142C14.9593 18.7816 15.24 18.5009 15.24 18.1558V16.7691C15.24 16.424 14.9593 16.1433 14.6142 16.1433H13.1913C12.8463 16.1433 12.5656 16.424 12.5656 16.7691V18.1558C12.5656 18.5009 12.8463 18.7816 13.1913 18.7816ZM13.298 16.8757H14.5076V18.0492H13.298V16.8757Z" fill="#F6A500"/>
<path d="M13.1913 21.775H14.6142C14.9593 21.775 15.24 21.4943 15.24 21.1493V19.7625C15.24 19.4174 14.9593 19.1367 14.6142 19.1367H13.1913C12.8463 19.1367 12.5656 19.4174 12.5656 19.7625V21.1493C12.5656 21.4943 12.8463 21.775 13.1913 21.775ZM13.298 19.8691H14.5076V21.0426H13.298V19.8691Z" fill="#F6A500"/>
<path d="M16.4406 15.788H17.8636C18.2086 15.788 18.4893 15.5072 18.4893 15.1622V13.7754C18.4893 13.4304 18.2086 13.1497 17.8636 13.1497H16.4406C16.0955 13.1497 15.8148 13.4304 15.8148 13.7754V15.1622C15.8148 15.5072 16.0955 15.788 16.4406 15.788ZM16.5472 13.882H17.7569V15.0555H16.5472V13.882Z" fill="#F6A500"/>
<path d="M16.4406 18.7816H17.8636C18.2086 18.7816 18.4893 18.5009 18.4893 18.1558V16.7691C18.4893 16.424 18.2086 16.1433 17.8636 16.1433H16.4406C16.0955 16.1433 15.8148 16.424 15.8148 16.7691V18.1558C15.8148 18.5009 16.0955 18.7816 16.4406 18.7816ZM16.5472 16.8757H17.7569V18.0492H16.5472V16.8757Z" fill="#F6A500"/>
<path d="M16.4406 21.775H17.8636C18.2086 21.775 18.4893 21.4943 18.4893 21.1493V19.7625C18.4893 19.4174 18.2086 19.1367 17.8636 19.1367H16.4406C16.0955 19.1367 15.8148 19.4174 15.8148 19.7625V21.1493C15.8148 21.4943 16.0955 21.775 16.4406 21.775ZM16.5472 19.8691H17.7569V21.0426H16.5472V19.8691Z" fill="#F6A500"/>
<path d="M19.6899 15.788H21.1128C21.4579 15.788 21.7386 15.5072 21.7386 15.1622V13.7754C21.7386 13.4304 21.4579 13.1497 21.1128 13.1497H19.6899C19.3448 13.1497 19.0641 13.4304 19.0641 13.7754V15.1622C19.0641 15.5072 19.3448 15.788 19.6899 15.788ZM19.7965 13.882H21.0062V15.0555H19.7965V13.882Z" fill="#F6A500"/>
<path d="M19.6899 18.7816H21.1128C21.4579 18.7816 21.7386 18.5009 21.7386 18.1558V16.7691C21.7386 16.424 21.4579 16.1433 21.1128 16.1433H19.6899C19.3448 16.1433 19.0641 16.424 19.0641 16.7691V18.1558C19.0641 18.5009 19.3448 18.7816 19.6899 18.7816ZM19.7965 16.8757H21.0062V18.0492H19.7965V16.8757Z" fill="#F6A500"/>
<path d="M19.6899 21.775H21.1128C21.4579 21.775 21.7386 21.4943 21.7386 21.1493V19.7625C21.7386 19.4174 21.4579 19.1367 21.1128 19.1367H19.6899C19.3448 19.1367 19.0641 19.4174 19.0641 19.7625V21.1493C19.0641 21.4943 19.3448 21.775 19.6899 21.775ZM19.7965 19.8691H21.0062V21.0426H19.7965V19.8691Z" fill="#F6A500"/>
<path d="M19.9816 9.48447C20.2326 9.66777 20.5701 9.66787 20.8212 9.48447C21.4545 9.02192 22.9738 7.75391 23.4026 5.97314C23.45 5.77651 23.3289 5.57871 23.1323 5.53135C22.9356 5.48423 22.7379 5.60508 22.6905 5.80166C22.3115 7.37554 20.8587 8.54814 20.4013 8.88408C19.8259 8.46162 18.0192 6.97808 18.0192 5.0314C18.0192 3.71787 19.0878 2.64922 20.4013 2.64922C21.4331 2.64922 22.3428 3.30723 22.6648 4.28652C22.728 4.47866 22.9349 4.58325 23.1271 4.52002C23.3192 4.45684 23.4238 4.24985 23.3606 4.05772C22.9394 2.7771 21.7502 1.91675 20.4013 1.91675C18.6839 1.91675 17.2867 3.31396 17.2867 5.03135C17.2867 7.33716 19.3493 9.02275 19.9816 9.48447V9.48447Z" fill="#F6A500"/>
<path d="M20.4012 3.29932C19.4461 3.29932 18.6691 4.07637 18.6691 5.03154C18.6691 5.98672 19.4461 6.76377 20.4012 6.76377C21.3564 6.76377 22.1335 5.98672 22.1335 5.03154C22.1335 4.07637 21.3564 3.29932 20.4012 3.29932V3.29932ZM20.4012 6.0313C19.85 6.0313 19.4015 5.58276 19.4015 5.03149C19.4015 4.48022 19.85 4.03169 20.4012 4.03169C20.9525 4.03169 21.4011 4.48022 21.4011 5.03149C21.4011 5.58276 20.9525 6.0313 20.4012 6.0313Z" fill="#F6A500"/>
</g>
<defs>
<clipPath id="clip0_201_313">
<rect width="25" height="25" fill="white" transform="translate(0 0.998779)"/>
</clipPath>
</defs>
</svg>
