<svg width="28" height="28" viewBox="0 0 28 28" fill="none" xmlns="http://www.w3.org/2000/svg">
<path d="M23.8301 0H4.16992C1.87064 0 0 1.87064 0 4.16992V11.2109C0 11.513 0.244836 11.7578 0.546875 11.7578H7.24609V19.5781C7.24609 19.7449 7.32102 19.9008 7.45117 20.0052L17.2812 27.8797C17.3775 27.9573 17.4989 28 17.623 28C17.7466 28 17.868 27.9573 17.9648 27.8797L27.7949 20.0052C27.9251 19.9008 28 19.7449 28 19.5781V17.582C28 17.2807 27.7545 17.0352 27.4531 17.0352C27.1518 17.0352 26.9068 17.2802 26.9062 17.5815V17.582V19.3156L17.623 26.7526L8.33984 19.3156V5.03125H26.9062V11.2109V12.6602C26.9062 12.9615 27.1518 13.207 27.4531 13.207C27.755 13.207 28 12.9615 28 12.6602V11.2109V4.16992C28 1.87064 26.1294 0 23.8301 0ZM23.8301 1.09375C25.448 1.09375 26.7772 2.34954 26.8966 3.9375H8.33301C8.27094 2.81405 7.76234 1.8078 6.98184 1.09375H23.8301ZM4.16992 1.09375C5.86611 1.09375 7.24609 2.47373 7.24609 4.16992V8.47656H1.09375V4.16992C1.09375 2.47373 2.47373 1.09375 4.16992 1.09375ZM1.09375 10.6641V9.57031H7.24609V10.6641H1.09375Z" fill="#F6A500"/>
<path d="M27.4531 15.668C27.7552 15.668 28 15.4231 28 15.1211C28 14.8191 27.7552 14.5742 27.4531 14.5742C27.1511 14.5742 26.9062 14.8191 26.9062 15.1211C26.9062 15.4231 27.1511 15.668 27.4531 15.668Z" fill="#F6A500"/>
<path d="M22.4082 19.4141C22.4082 19.112 22.1633 18.8672 21.8613 18.8672H13.3848C13.0827 18.8672 12.8379 19.112 12.8379 19.4141C12.8379 19.7161 13.0827 19.9609 13.3848 19.9609H21.8613C22.1633 19.9609 22.4082 19.7161 22.4082 19.4141Z" fill="#F6A500"/>
<path d="M15.2988 21.0547C14.9968 21.0547 14.752 21.2995 14.752 21.6016C14.752 21.9036 14.9968 22.1484 15.2988 22.1484H19.9473C20.2492 22.1484 20.4941 21.9036 20.4941 21.6016C20.4941 21.2995 20.2492 21.0547 19.9473 21.0547H15.2988Z" fill="#F6A500"/>
<path d="M11.5254 14.4648C11.2234 14.4648 10.9785 14.7097 10.9785 15.0117C10.9785 15.3138 11.2234 15.5586 11.5254 15.5586H14.2598C14.5617 15.5586 14.8066 15.3138 14.8066 15.0117C14.8066 14.7097 14.5617 14.4648 14.2598 14.4648H13.4395V9.57031C13.4395 9.26827 13.1946 9.02344 12.8926 9.02344H11.5254C11.2234 9.02344 10.9785 9.26827 10.9785 9.57031C10.9785 9.87235 11.2234 10.1172 11.5254 10.1172H12.3457V14.4648H11.5254Z" fill="#F6A500"/>
<path d="M23.1689 15.0391V11.5392H23.7207C24.0227 11.5392 24.2676 11.2943 24.2676 10.9923C24.2676 10.6903 24.0227 10.4454 23.7207 10.4454H23.1689V9.57031C23.1689 9.26827 22.924 9.02344 22.622 9.02344C22.32 9.02344 22.0752 9.26827 22.0752 9.57031V10.4454H21.5332C21.2312 10.4454 20.9863 10.6903 20.9863 10.9923C20.9863 11.2943 21.2312 11.5392 21.5332 11.5392H22.0752V15.0391C22.0752 15.3411 22.32 15.5859 22.622 15.5859C22.924 15.5859 23.1689 15.3411 23.1689 15.0391Z" fill="#F6A500"/>
<path d="M18.3147 14.4923C17.9732 14.4923 17.6402 14.3281 17.4243 14.0529C17.2377 13.8154 16.894 13.7739 16.6564 13.9605C16.4188 14.1469 16.3774 14.4907 16.564 14.7283C16.9856 15.2654 17.6401 15.5861 18.3148 15.5861C19.1159 15.5861 19.8121 15.0239 19.9702 14.2493C20.129 13.4709 19.6925 12.7383 18.8581 12.383C18.8581 12.383 18.0299 12.031 17.8321 11.9068C17.7489 11.8546 17.7319 11.7248 17.7428 11.6295C17.7588 11.4881 17.842 11.314 18.0276 11.2494C18.4889 11.0888 18.9375 11.4959 18.952 11.5093C19.1689 11.7167 19.513 11.7105 19.7224 11.4948C19.9327 11.278 19.9275 10.9318 19.7107 10.7214C19.3683 10.3891 18.5527 9.90865 17.6683 10.2163C17.1121 10.4098 16.7242 10.904 16.6559 11.5063C16.5936 12.0555 16.8215 12.564 17.2506 12.8332C17.5222 13.0036 18.4295 13.3892 18.4295 13.3892C18.7854 13.5408 18.952 13.7686 18.8985 14.0306C18.8517 14.26 18.6361 14.4923 18.3147 14.4923Z" fill="#F6A500"/>
</svg>
