<svg width="28" height="28" viewBox="0 0 28 28" fill="none" xmlns="http://www.w3.org/2000/svg">
<g clip-path="url(#clip0_15_1953)">
<path d="M6.56469 5.42016C6.56469 4.96111 6.19123 4.58765 5.73224 4.58765H3.96688C3.50783 4.58765 3.13437 4.96111 3.13437 5.42016V7.18558C3.13437 7.64463 3.50788 8.01809 3.96688 8.01809H5.7323C6.19134 8.01809 6.56475 7.64463 6.56475 7.18558V5.42016H6.56469ZM5.74449 7.18553C5.74449 7.19231 5.73897 7.19778 5.73224 7.19778H3.96688C3.96009 7.19778 3.95457 7.19225 3.95457 7.18553V5.42016C3.95457 5.41337 3.96009 5.40791 3.96688 5.40791H5.7323C5.73902 5.40791 5.74455 5.41343 5.74455 5.42016V7.18553H5.74449Z" fill="#71BF43"/>
<path d="M10.9538 5.42016C10.9538 4.96111 10.5804 4.58765 10.1214 4.58765H8.35598C7.89693 4.58765 7.52347 4.96111 7.52347 5.42016V7.18558C7.52347 7.64463 7.89698 8.01809 8.35598 8.01809H10.1214C10.5804 8.01809 10.9538 7.64463 10.9538 7.18558V5.42016ZM10.1336 7.18553C10.1336 7.19231 10.1281 7.19778 10.1214 7.19778H8.35598C8.34919 7.19778 8.34367 7.19225 8.34367 7.18553V5.42016C8.34367 5.41337 8.34919 5.40791 8.35598 5.40791H10.1214C10.1281 5.40791 10.1336 5.41343 10.1336 5.42016V7.18553Z" fill="#71BF43"/>
<path d="M6.56469 9.95653C6.56469 9.49748 6.19123 9.12402 5.73224 9.12402H3.96688C3.50783 9.12402 3.13437 9.49748 3.13437 9.95653V11.722C3.13437 12.181 3.50788 12.5545 3.96688 12.5545H5.7323C6.19134 12.5545 6.56475 12.181 6.56475 11.722V9.95653H6.56469ZM5.74449 11.7219C5.74449 11.7287 5.73897 11.7341 5.73224 11.7341H3.96688C3.96009 11.7341 3.95457 11.7286 3.95457 11.7219V9.95653C3.95457 9.94975 3.96009 9.94428 3.96688 9.94428H5.7323C5.73902 9.94428 5.74455 9.9498 5.74455 9.95653V11.7219H5.74449Z" fill="#71BF43"/>
<path d="M10.9538 9.95653C10.9538 9.49748 10.5804 9.12402 10.1214 9.12402H8.35598C7.89693 9.12402 7.52347 9.49748 7.52347 9.95653V11.722C7.52347 12.181 7.89698 12.5545 8.35598 12.5545H10.1214C10.5804 12.5545 10.9538 12.181 10.9538 11.722V9.95653ZM10.1336 11.7219C10.1336 11.7287 10.1281 11.7341 10.1214 11.7341H8.35598C8.34919 11.7341 8.34367 11.7286 8.34367 11.7219V9.95653C8.34367 9.94975 8.34919 9.94428 8.35598 9.94428H10.1214C10.1281 9.94428 10.1336 9.9498 10.1336 9.95653V11.7219Z" fill="#71BF43"/>
<path d="M5.73224 13.6602H3.96688C3.50783 13.6602 3.13437 14.0336 3.13437 14.4927V16.2581C3.13437 16.7171 3.50788 17.0906 3.96688 17.0906H5.7323C6.19134 17.0906 6.56475 16.7171 6.56475 16.2581V14.4927C6.56469 14.0336 6.19129 13.6602 5.73224 13.6602ZM5.74449 16.2581C5.74449 16.2649 5.73897 16.2703 5.73224 16.2703H3.96688C3.96009 16.2703 3.95457 16.2648 3.95457 16.2581V14.4927C3.95457 14.4859 3.96009 14.4804 3.96688 14.4804H5.7323C5.73902 14.4804 5.74455 14.4859 5.74455 14.4927V16.2581H5.74449Z" fill="#71BF43"/>
<path d="M10.1214 13.6602H8.35598C7.89693 13.6602 7.52347 14.0336 7.52347 14.4927V16.2581C7.52347 16.7171 7.89698 17.0906 8.35598 17.0906H10.1214C10.5804 17.0906 10.9538 16.7171 10.9538 16.2581V14.4927C10.9538 14.0336 10.5804 13.6602 10.1214 13.6602ZM10.1336 16.2581C10.1336 16.2649 10.1281 16.2703 10.1214 16.2703H8.35598C8.34919 16.2703 8.34367 16.2648 8.34367 16.2581V14.4927C8.34367 14.4859 8.34919 14.4804 8.35598 14.4804H10.1214C10.1281 14.4804 10.1336 14.4859 10.1336 14.4927V16.2581Z" fill="#71BF43"/>
<path d="M26.6948 25.392H26.0862V21.9264C26.0862 20.5458 25.161 19.31 23.8363 18.9211L21.3524 18.1919C21.2824 18.1262 21.2016 18.0721 21.1134 18.0329L20.5977 17.8031C20.4518 17.7381 20.2963 17.7092 20.1425 17.714V16.5576C20.9587 15.9627 21.5273 15.0439 21.6505 13.985C22.0548 13.885 22.3555 13.5192 22.3555 13.0845V11.9663V9.82051C22.3555 9.06691 21.7539 8.45124 21.0057 8.42838C20.9653 7.69639 20.357 7.1132 19.615 7.1132H16.2288C15.9168 7.1132 15.6174 7.16745 15.3388 7.26616C15.3414 7.23959 15.3429 7.21273 15.3429 7.1855V5.42019C15.3429 4.96114 14.9695 4.58768 14.5105 4.58768H12.745C12.286 4.58768 11.9125 4.96114 11.9125 5.42019V7.18561C11.9125 7.64466 12.2861 8.01812 12.745 8.01812H14.2272C13.951 8.33066 13.7463 8.70773 13.6399 9.12395H12.745C12.286 9.12395 11.9125 9.49741 11.9125 9.95646V11.7219C11.9125 12.1809 12.2861 12.5544 12.745 12.5544H13.557V13.0845C13.557 13.3019 13.6322 13.502 13.7578 13.6602H12.745C12.2859 13.6602 11.9125 14.0337 11.9125 14.4927V16.2582C11.9125 16.7172 12.286 17.0906 12.745 17.0906H14.5104C14.9695 17.0906 15.3429 16.7171 15.3429 16.2582V16.195C15.4759 16.3264 15.6187 16.4475 15.77 16.5578V17.7119C15.6175 17.7083 15.4636 17.7376 15.3196 17.8022L14.8138 18.0293C14.7262 18.0686 14.646 18.1226 14.5765 18.188L12.0777 18.9214C10.7529 19.3102 9.82768 20.546 9.82768 21.9267V22.2052C9.82768 22.4317 10.0113 22.6153 10.2378 22.6153C10.4643 22.6153 10.6479 22.4317 10.6479 22.2052V21.9267C10.6479 20.9076 11.3308 19.9954 12.3087 19.7084L14.3548 19.1079C14.3968 19.2239 14.4641 19.3326 14.5568 19.4254L15.9578 20.8283C15.9592 20.8296 15.9606 20.831 15.9619 20.8323C16.1354 21.0012 16.3601 21.0866 16.5855 21.0866C16.6381 21.0866 16.6907 21.0817 16.7428 21.0724L17.0336 21.572L16.3566 25.392H13.2145V24.501C13.2145 24.2745 13.0309 24.0909 12.8044 24.0909C12.5779 24.0909 12.3943 24.2745 12.3943 24.501V25.392H10.6481V24.1223C10.6481 23.8958 10.4645 23.7122 10.2379 23.7122C10.0114 23.7122 9.82785 23.8959 9.82785 24.1223V25.392H8.12094V20.6061H8.17246C8.39897 20.6061 8.58256 20.4225 8.58256 20.196C8.58256 19.9695 8.39897 19.7859 8.17246 19.7859H3.23472C3.00821 19.7859 2.82462 19.9696 2.82462 20.196C2.82462 20.4226 3.00821 20.6061 3.23472 20.6061H3.28624V25.392H1.80098V3.91579C1.80098 3.57421 2.0789 3.29634 2.42043 3.29634H16.0569C16.3985 3.29634 16.6763 3.57421 16.6763 3.91579V5.57884C16.6763 5.80535 16.8599 5.98894 17.0864 5.98894C17.3129 5.98894 17.4965 5.8053 17.4965 5.57884V3.91579C17.4965 3.18429 16.948 2.5789 16.2408 2.48828V1.00893C16.2408 0.452594 15.7882 0 15.2318 0H3.24544C2.68911 0 2.23657 0.452594 2.23657 1.00893V2.48828C1.52929 2.5789 0.980777 3.18429 0.980777 3.91579V25.4329C0.418152 25.5775 0.00115967 26.0889 0.00115967 26.696C0.00115967 27.415 0.586097 28 1.30518 28H26.6949C27.4139 28 27.9989 27.415 27.9989 26.696C27.9989 25.9769 27.4139 25.392 26.6948 25.392ZM3.24544 0.820258H15.2318C15.3359 0.820258 15.4206 0.904914 15.4206 1.00893V2.47609H3.05677V1.00893C3.05677 0.904859 3.14143 0.820258 3.24544 0.820258ZM25.266 21.9264V25.392H23.5184V24.501C23.5184 24.2745 23.3348 24.0909 23.1083 24.0909C22.8818 24.0909 22.6982 24.2745 22.6982 24.501V25.392H19.5578L18.8797 21.5678L19.1745 21.0393C19.2294 21.0498 19.285 21.0555 19.3406 21.0555C19.5644 21.0555 19.788 20.9711 19.9625 20.8034L21.3642 19.4385C21.4605 19.3447 21.5304 19.2323 21.5732 19.1116L23.6053 19.7082C24.583 19.9952 25.266 20.9074 25.266 21.9264ZM17.6995 21.0854L17.4413 20.6419L17.9912 20.1825L18.4801 20.6005L18.2095 21.0854H17.6995V21.0854ZM20.2639 18.5523L20.7797 18.7821C20.8058 18.7937 20.8135 18.8297 20.7919 18.8508L19.3923 20.2138C19.3647 20.2401 19.3222 20.2413 19.2933 20.2167L18.6438 19.6613L20.0414 18.5791C20.1051 18.5298 20.1904 18.5195 20.2639 18.5523ZM19.6151 7.93346C19.9308 7.93346 20.1876 8.19027 20.1876 8.50598C20.1876 8.9151 20.5205 9.24798 20.9296 9.24798H20.9627C21.2784 9.24798 21.5352 9.5048 21.5352 9.82051V11.5562H21.2663C21.1155 11.5562 20.9927 11.4335 20.9927 11.2826V10.9084C20.9927 10.2541 20.4556 9.77523 19.8643 9.77523C19.7447 9.77523 19.6238 9.79453 19.5055 9.83358C18.5069 10.1637 17.4068 10.1638 16.4069 9.83336C15.6737 9.59109 14.9199 10.1359 14.9199 10.9082V11.2826C14.9199 11.4335 14.7971 11.5562 14.6462 11.5562H14.3773V9.78491C14.3773 8.76405 15.2078 7.93346 16.2288 7.93346H19.6151ZM12.7328 7.18555V5.42019C12.7328 5.41341 12.7384 5.40794 12.7452 5.40794H14.5106C14.5173 5.40794 14.5228 5.41346 14.5228 5.42019V7.18561C14.5228 7.19239 14.5173 7.19786 14.5106 7.19786H12.7452C12.7384 7.1978 12.7328 7.19234 12.7328 7.18555ZM12.7328 11.7218V9.95641C12.7328 9.94963 12.7384 9.94416 12.7452 9.94416H13.5572V11.7341H12.7452C12.7384 11.734 12.7328 11.7286 12.7328 11.7218ZM14.5228 16.258C14.5228 16.2648 14.5172 16.2703 14.5105 16.2703H12.7451C12.7383 16.2703 12.7328 16.2648 12.7328 16.258V14.4926C12.7328 14.4858 12.7383 14.4804 12.7451 14.4804H14.3546C14.399 14.6528 14.4552 14.8203 14.5227 14.9818V16.258H14.5228ZM15.0631 13.7364C15.0437 13.431 14.7896 13.1917 14.4847 13.1917C14.4255 13.1917 14.3774 13.1435 14.3774 13.0844V12.3764H14.6463C15.2495 12.3764 15.7402 11.8857 15.7402 11.2826V10.9082C15.7402 10.6979 15.9451 10.5447 16.1509 10.6127C17.3157 10.9974 18.5985 10.9973 19.763 10.6124C19.9646 10.5458 20.1725 10.6953 20.1725 10.9084V11.2826C20.1725 11.8857 20.6632 12.3764 21.2664 12.3764H21.5353V13.0844C21.5353 13.1435 21.4872 13.1917 21.4281 13.1917C21.1231 13.1917 20.869 13.4309 20.8496 13.7366C20.7536 15.2586 19.4828 16.4509 17.9563 16.4509C16.4299 16.4509 15.1591 15.2586 15.0631 13.7364ZM17.9564 17.2711C18.4374 17.2711 18.8984 17.1784 19.3223 17.0102V18.0984L17.9898 19.1302L16.5903 18.0845V17.0103C17.0143 17.1784 17.4753 17.2711 17.9564 17.2711ZM15.1374 18.8456C15.1152 18.8234 15.1253 18.7884 15.1499 18.7774L15.6557 18.5504C15.728 18.518 15.8123 18.5272 15.876 18.5747L17.333 19.6635L16.6327 20.2484C16.6041 20.2723 16.5624 20.2712 16.5353 20.2459L15.1374 18.8456ZM17.8076 21.9056H18.1065L18.7248 25.392H17.1897L17.8076 21.9056ZM4.1065 20.6061H7.30063V25.392H4.1065V20.6061ZM26.6948 27.1797H1.30518C1.03842 27.1797 0.821418 26.9627 0.821418 26.696C0.821418 26.4292 1.03842 26.2123 1.30518 26.2123H26.6949C26.9617 26.2123 27.1787 26.4293 27.1787 26.696C27.1787 26.9627 26.9616 27.1797 26.6948 27.1797Z" fill="#71BF43"/>
</g>
<defs>
<clipPath id="clip0_15_1953">
<rect width="28" height="28" fill="white"/>
</clipPath>
</defs>
</svg>
