<svg width="25" height="25" viewBox="0 0 25 25" fill="none" xmlns="http://www.w3.org/2000/svg">
<g clip-path="url(#clip0_201_376)">
<path d="M24.99 20.1105V17.9107H22.6436V16.4442H21.8614V15.222H22.6436V13.0222H16.7948V13.7555H21.9103V14.4888H6.73849V15.222H21.1281V16.4442H5.16719C4.83023 16.4442 4.55613 16.1701 4.55613 15.8331C4.55613 15.4961 4.83023 15.222 5.16719 15.222H6.00522V14.4888H5.16719C4.42595 14.4888 3.82286 15.0918 3.82286 15.8331C3.82286 16.5744 4.42595 17.1774 5.16719 17.1774H21.9102V17.9107H9.27351V18.644H24.2567V19.3773H3.55399C2.40837 19.3773 1.47638 20.3093 1.47638 21.4549C1.47638 22.6005 2.40837 23.5325 3.55399 23.5325H20.8243V22.7992H3.55404C2.81275 22.7992 2.20971 22.1962 2.20971 21.4549C2.20971 20.7136 2.81275 20.1105 3.55404 20.1105H23.4746V21.3327H7.2204V22.0659H23.4746V22.7992H21.5576V23.5325H24.2568V24.2658H3.55404C2.0041 24.2658 0.74316 23.0048 0.74316 21.4549C0.74316 19.9049 2.0041 18.644 3.55404 18.644H8.54029V17.9107H5.16724C4.02162 17.9107 3.08963 16.9787 3.08963 15.8331C3.08963 14.6875 4.02162 13.7555 5.16724 13.7555H16.0616V13.0222H5.16724C3.6173 13.0222 2.35636 14.2832 2.35636 15.8331C2.35636 16.6613 2.71659 17.4068 3.2884 17.9217C1.45786 18.0581 0.0098877 19.5901 0.0098877 21.4549C0.0098877 23.4091 1.59977 24.999 3.55404 24.999H24.99V22.7992H24.2079V20.1105H24.99Z" fill="#71BF43"/>
<path d="M5.75391 21.3328H6.48717V22.066H5.75391V21.3328Z" fill="#71BF43"/>
<path d="M6.75596 10.8964L6.91924 11.0052C6.98289 11.0477 8.52383 12.0445 12.4999 12.0445C16.476 12.0445 18.017 11.0477 18.0806 11.0052L18.2439 10.8964V4.7235L20.4437 3.99023V7.45171C19.8802 7.61176 19.466 8.13067 19.466 8.74481V10.578H22.1547V8.74481C22.1547 8.13067 21.7405 7.61176 21.177 7.45171V3.7458L22.4586 3.3186L18.6081 2.03508L18.3762 2.73071L20.1398 3.31855L12.4999 5.8652L4.86006 3.3186L12.4999 0.771991L17.6806 2.4989L17.9125 1.80327L12.4999 -0.000976562L2.54126 3.3186L6.75596 4.7235V10.8964ZM21.4214 8.74481V9.84472H20.1993V8.74481C20.1993 8.40785 20.4734 8.13375 20.8104 8.13375C21.1473 8.13375 21.4214 8.40785 21.4214 8.74481ZM7.48924 4.96792L12.4999 6.63817L17.5106 4.96792V7.84045H16.6063V8.57372H17.5106V9.30699H15.9219V10.0403H17.5106V10.4823C17.0381 10.7124 15.5178 11.3113 12.4999 11.3113C9.47973 11.3113 7.95941 10.7115 7.48924 10.4825V4.96792Z" fill="#71BF43"/>
<path d="M4.28735 21.3328H5.02062V22.066H4.28735V21.3328Z" fill="#71BF43"/>
<path d="M14.4553 9.30688H15.1886V10.0402H14.4553V9.30688Z" fill="#71BF43"/>
</g>
<defs>
<clipPath id="clip0_201_376">
<rect width="25" height="25" fill="white" transform="translate(0 -0.000976562)"/>
</clipPath>
</defs>
</svg>
