<svg width="25" height="25" viewBox="0 0 25 25" fill="none" xmlns="http://www.w3.org/2000/svg">
<g clip-path="url(#clip0_201_357)">
<path d="M8.42529 19.135C8.41895 19.1038 8.40967 19.073 8.39746 19.0432C8.38525 19.0139 8.37012 18.9856 8.35254 18.9592C8.33496 18.9324 8.31445 18.9075 8.29199 18.885C8.26953 18.8625 8.24463 18.842 8.21777 18.8245C8.19141 18.8069 8.16309 18.7917 8.1333 18.7795C8.104 18.7673 8.07324 18.7576 8.04199 18.7517C7.979 18.739 7.91406 18.739 7.85156 18.7517C7.82031 18.7576 7.78955 18.7673 7.75977 18.7795C7.73047 18.7917 7.70215 18.8069 7.67578 18.8245C7.64893 18.842 7.62402 18.8625 7.60156 18.885C7.5791 18.9075 7.55859 18.9324 7.54102 18.9592C7.52295 18.9856 7.5083 19.0139 7.49609 19.0432C7.48389 19.073 7.47412 19.1038 7.46826 19.135C7.46191 19.1663 7.4585 19.1985 7.4585 19.2302C7.4585 19.262 7.46191 19.2942 7.46826 19.3254C7.47412 19.3567 7.48389 19.3875 7.49609 19.4167C7.5083 19.4465 7.52295 19.4749 7.54102 19.5012C7.55859 19.5281 7.5791 19.553 7.60156 19.5754C7.62402 19.5979 7.64893 19.6184 7.67578 19.636C7.70215 19.6536 7.73047 19.6688 7.75977 19.681C7.78955 19.6932 7.82031 19.7029 7.85156 19.7088C7.88281 19.7151 7.91504 19.7186 7.94678 19.7186C7.97852 19.7186 8.01074 19.7151 8.04199 19.7088C8.07324 19.7029 8.104 19.6932 8.1333 19.681C8.16309 19.6688 8.19141 19.6536 8.21777 19.636C8.24463 19.6184 8.26953 19.5979 8.29199 19.5754C8.31445 19.553 8.33496 19.5281 8.35254 19.5012C8.37012 19.4749 8.38525 19.4465 8.39746 19.4167C8.40967 19.3875 8.41895 19.3567 8.42529 19.3254C8.43164 19.2942 8.43506 19.262 8.43506 19.2302C8.43506 19.1985 8.43164 19.1663 8.42529 19.135Z" fill="#71BF43"/>
<path d="M22.4606 19.2852C22.4587 19.2803 22.4567 19.2754 22.4547 19.2707C22.0053 18.219 20.9513 17.8304 19.7039 18.2564L16.3021 19.1971C16.1055 18.6015 15.6149 18.0947 14.9212 17.8373C14.9169 17.8357 14.9126 17.8341 14.9083 17.8327L11.169 16.5635C10.8578 16.1612 9.88286 15.1318 8.05752 15.1318C6.78189 15.1318 5.65342 16.0069 5.00781 16.9608H0.488281C0.218604 16.9608 0 17.1794 0 17.4491V23.6052C0 23.8749 0.218604 24.0935 0.488281 24.0935H3.39146C3.66113 24.0935 3.87974 23.8749 3.87974 23.6052V23.1836H5.24121C5.51089 23.1836 5.72949 22.965 5.72949 22.6953V22.5548C6.52314 22.624 6.78418 22.7746 7.51309 23.1949C8.07363 23.5181 8.92085 24.0066 10.4465 24.6926C10.4536 24.6958 10.4608 24.6988 10.468 24.7017C10.7608 24.8168 11.3332 24.9978 12.0389 24.9978C12.5301 24.9978 13.086 24.9101 13.6566 24.6514L21.1757 21.9592C21.1891 21.9544 21.2023 21.9491 21.2152 21.9431C21.9338 21.6125 23.0046 20.6807 22.4606 19.2852ZM2.90317 23.1168H0.976562V17.9373H2.90317V23.1168ZM4.75293 22.207H3.87974V17.9373H4.75293V22.207ZM20.825 21.0475L13.3093 23.7384C13.3027 23.7408 13.2937 23.7443 13.2873 23.7469C13.2807 23.7496 13.2741 23.7524 13.2676 23.7554C12.2208 24.2365 11.2259 23.9485 10.8359 23.7969C9.36221 23.1337 8.57563 22.6802 8.00093 22.3488C7.2019 21.888 6.81689 21.666 5.72949 21.5762V17.6435C6.19233 16.8849 7.08989 16.1083 8.05757 16.1083C9.71704 16.1083 10.4202 17.1877 10.4479 17.2312C10.5075 17.3282 10.5991 17.4013 10.7069 17.4379L14.5875 18.755C15.2073 18.9876 15.5348 19.5184 15.3843 20.0477C15.3148 20.2921 15.1542 20.4948 14.9323 20.6185C14.7122 20.7411 14.4578 20.7714 14.2153 20.7043L9.84067 19.318C9.58345 19.2365 9.30913 19.3789 9.22769 19.636C9.14619 19.8931 9.28857 20.1675 9.54565 20.249L13.9279 21.6377C13.9326 21.6392 13.9372 21.6406 13.9419 21.6419C14.1168 21.6916 14.295 21.7163 14.472 21.7163C14.7961 21.7163 15.1167 21.6337 15.4076 21.4716C15.8575 21.2209 16.1828 20.8101 16.3236 20.3147C16.3348 20.2752 16.3448 20.2356 16.3534 20.1961L20.0196 19.1805C20.5491 18.9996 21.2441 18.9344 21.5536 19.6472C21.8739 20.4839 21.0414 20.9442 20.825 21.0475Z" fill="#71BF43"/>
<path d="M17.5322 6.42188C17.5259 6.39062 17.5166 6.35986 17.5039 6.33008C17.4917 6.30078 17.4771 6.27246 17.459 6.24609C17.4414 6.21924 17.4209 6.19434 17.3984 6.17187C17.376 6.14941 17.3511 6.12891 17.3242 6.11133C17.2979 6.09375 17.2695 6.07861 17.2402 6.06641C17.2104 6.0542 17.1797 6.04443 17.1489 6.03857C17.0859 6.02588 17.021 6.02588 16.958 6.03857C16.9268 6.04443 16.896 6.0542 16.8667 6.06641C16.8369 6.07861 16.8086 6.09375 16.7822 6.11133C16.7554 6.12891 16.7305 6.14941 16.708 6.17187C16.6855 6.19434 16.665 6.21924 16.6475 6.24609C16.6299 6.27246 16.6147 6.30078 16.6025 6.33008C16.5903 6.35986 16.5806 6.39062 16.5747 6.42188C16.5684 6.45313 16.5649 6.48535 16.5649 6.51709C16.5649 6.54883 16.5684 6.58105 16.5747 6.6123C16.5806 6.64355 16.5903 6.67432 16.6025 6.70361C16.6147 6.7334 16.6299 6.76172 16.6475 6.78809C16.665 6.81494 16.6855 6.83984 16.708 6.8623C16.7305 6.88477 16.7554 6.90527 16.7822 6.92285C16.8086 6.94043 16.8369 6.95557 16.8667 6.96777C16.896 6.97998 16.9268 6.98926 16.958 6.99561C16.9893 7.00195 17.0215 7.00537 17.0532 7.00537C17.085 7.00537 17.1172 7.00195 17.1489 6.99561C17.1797 6.98926 17.2104 6.97998 17.2402 6.96777C17.2695 6.95557 17.2979 6.94043 17.3242 6.92285C17.3511 6.90527 17.376 6.88477 17.3984 6.8623C17.4209 6.83984 17.4414 6.81494 17.459 6.78809C17.4771 6.76172 17.4917 6.7334 17.5039 6.70361C17.5166 6.67432 17.5259 6.64355 17.5322 6.6123C17.5386 6.58105 17.5415 6.54883 17.5415 6.51709C17.5415 6.48535 17.5386 6.45313 17.5322 6.42188Z" fill="#71BF43"/>
<path d="M24.5117 1.65394H21.6086C21.3389 1.65394 21.1203 1.87255 21.1203 2.14222V2.56381H19.7588C19.4891 2.56381 19.2705 2.78241 19.2705 3.05209V3.19261C18.4769 3.12333 18.2158 2.97284 17.487 2.55253C16.9264 2.22928 16.0792 1.74076 14.5535 1.05477C14.5464 1.05155 14.5393 1.04857 14.532 1.04574C14.0354 0.850329 12.7338 0.465857 11.3436 1.09589L9.37874 1.7994L7.72253 0.14325C7.53186 -0.0474243 7.22268 -0.0474243 7.03201 0.14325L1.59461 5.5806C1.41873 5.75653 1.38499 6.06156 1.59461 6.27118L10.886 15.5625C11.0346 15.7113 11.3828 15.7562 11.5765 15.5625L16.5407 10.5985C16.6697 10.6096 16.8036 10.6156 16.9425 10.6156C18.2181 10.6156 19.3466 9.74051 19.9921 8.78671H24.5117C24.7814 8.78671 25 8.5681 25 8.29842V2.14222C25 1.87255 24.7814 1.65394 24.5117 1.65394ZM7.37722 1.17904L8.49011 2.29193C8.1593 2.49652 7.77683 2.60599 7.37722 2.60599C6.97756 2.60599 6.59514 2.49657 6.26433 2.29193L7.37722 1.17904ZM3.74334 7.03881L2.63045 5.92587L3.74334 4.81298C3.94793 5.14379 4.0574 5.52626 4.0574 5.92587C4.0574 6.32548 3.94797 6.70795 3.74334 7.03881ZM11.2313 14.5267L10.1186 13.414C10.7979 12.9948 11.6645 12.9948 12.3439 13.414L11.2313 14.5267ZM13.0474 12.7106C11.9684 11.9279 10.4941 11.9279 9.41511 12.7106L4.4468 7.74222C4.8281 7.21781 5.03396 6.58788 5.03396 5.92587C5.03396 5.26381 4.82815 4.63392 4.4468 4.10951L5.56091 2.99545C6.08533 3.37675 6.71521 3.5826 7.37727 3.5826C8.03933 3.5826 8.66921 3.37675 9.19363 2.99545L10.2497 4.05155C10.0219 4.08519 9.79963 4.16029 9.59241 4.27577C9.24241 4.47079 8.9678 4.76283 8.7968 5.11615C8.24602 5.21815 7.73611 5.4848 7.33611 5.88475C6.2509 6.97001 6.2509 8.73578 7.33616 9.82103C7.87874 10.3636 8.59148 10.6349 9.30427 10.6349C10.017 10.6349 10.7298 10.3637 11.2724 9.82103C11.6255 9.468 11.8728 9.03412 11.9967 8.56127L13.6453 9.12079C13.4597 9.98055 13.6498 10.885 14.1625 11.5955L13.0474 12.7106ZM10.0788 7.91014C10.0831 7.91171 10.0874 7.91327 10.0917 7.91473L11.0681 8.24613C10.9944 8.57889 10.8275 8.88485 10.5819 9.1305C9.87742 9.8349 8.73113 9.835 8.02673 9.1305C7.32224 8.42606 7.32224 7.27982 8.02673 6.57533C8.19666 6.40531 8.39719 6.27245 8.6157 6.18236C8.70584 6.93246 9.24592 7.60106 10.0788 7.91014ZM14.8661 10.8919C14.6776 10.5848 14.571 10.2342 14.5541 9.87645C14.788 10.0455 15.0739 10.2112 15.4153 10.3427L14.8661 10.8919ZM19.2705 8.10375C18.8077 8.86244 17.9101 9.63895 16.9425 9.63895C16.7614 9.63895 16.5917 9.62606 16.4331 9.60311C16.4324 9.60301 16.4318 9.60292 16.4312 9.60282C15.3767 9.44965 14.8094 8.85033 14.6225 8.61302C14.6125 8.59838 14.5701 8.54286 14.5638 8.53363C14.5069 8.43197 14.4136 8.35023 14.2947 8.30985L10.4125 6.99222C9.79294 6.7597 9.46545 6.22919 9.61555 5.70009C9.61565 5.69974 9.61575 5.6994 9.61585 5.69906C9.61599 5.69867 9.61609 5.69823 9.61619 5.69784C9.68596 5.45419 9.84622 5.25209 10.0677 5.1287C10.2877 5.00609 10.5421 4.97567 10.7846 5.04291L15.1593 6.42919C15.4164 6.51078 15.6908 6.3683 15.7723 6.11122C15.8537 5.85414 15.7114 5.57972 15.4543 5.49823L11.9751 4.39569L11.9447 4.36532C11.9444 4.36503 11.9441 4.36468 11.9438 4.36439L10.1425 2.56312L11.6907 2.00873C11.696 2.00682 11.7024 2.00443 11.7076 2.00233C11.7089 2.00179 11.7115 2.00082 11.7127 2.00028C11.7194 1.9976 11.7259 1.99476 11.7324 1.99178C12.7791 1.51073 13.774 1.79867 14.164 1.95033C15.6378 2.61346 16.4244 3.06703 16.9991 3.39843C17.7981 3.85922 18.1831 4.08124 19.2705 4.17103V8.10375V8.10375ZM21.1203 7.81005H20.2471V3.54037H21.1203V7.81005ZM24.0235 7.81005H22.0969V2.63051H24.0235V7.81005Z" fill="#71BF43"/>
</g>
<defs>
<clipPath id="clip0_201_357">
<rect width="25" height="25" fill="white" transform="translate(0 -0.000976562)"/>
</clipPath>
</defs>
</svg>
