<svg width="9" height="14" viewBox="0 0 9 14" fill="none" xmlns="http://www.w3.org/2000/svg">
<path d="M3.6 9.04C3.6 8.548 3.708 8.092 3.924 7.672C4.14 7.252 4.404 6.892 4.716 6.592C5.028 6.28 5.34 5.986 5.652 5.71C5.964 5.422 6.228 5.116 6.444 4.792C6.66 4.456 6.768 4.108 6.768 3.748C6.768 3.244 6.594 2.86 6.246 2.596C5.898 2.32 5.43 2.182 4.842 2.182C4.278 2.182 3.792 2.326 3.384 2.614C2.976 2.902 2.682 3.31 2.502 3.838L0.72 2.83C1.056 1.978 1.596 1.324 2.34 0.868C3.096 0.399999 3.948 0.165999 4.896 0.165999C5.964 0.165999 6.888 0.471999 7.668 1.084C8.448 1.696 8.838 2.542 8.838 3.622C8.838 4.126 8.73 4.6 8.514 5.044C8.298 5.476 8.034 5.848 7.722 6.16C7.41 6.472 7.098 6.778 6.786 7.078C6.474 7.366 6.21 7.678 5.994 8.014C5.778 8.35 5.67 8.692 5.67 9.04H3.6ZM5.598 12.82C5.334 13.084 5.016 13.216 4.644 13.216C4.272 13.216 3.954 13.084 3.69 12.82C3.426 12.556 3.294 12.238 3.294 11.866C3.294 11.494 3.42 11.176 3.672 10.912C3.936 10.648 4.26 10.516 4.644 10.516C5.016 10.516 5.334 10.648 5.598 10.912C5.862 11.176 5.994 11.494 5.994 11.866C5.994 12.238 5.862 12.556 5.598 12.82Z" fill="currentcolor"/>
</svg>
