<svg width="17" height="10" viewBox="0 0 17 10" fill="none" xmlns="http://www.w3.org/2000/svg">
<path fill-rule="evenodd" clip-rule="evenodd" d="M16.2844 0.658319C16.3997 0.279161 16.2844 0 15.7323 0H13.9094C13.4456 0 13.2317 0.240967 13.1157 0.506934C13.1157 0.506934 12.1886 2.72633 10.8755 4.16797C10.4505 4.58601 10.2574 4.71865 10.0255 4.71865C9.90952 4.71865 9.73521 4.58602 9.73521 4.20616V0.658319C9.73521 0.202773 9.60744 0 9.22134 0H6.35473C6.06515 0 5.89085 0.211107 5.89085 0.411797C5.89085 0.843038 6.54778 0.943036 6.61514 2.1569V4.79434C6.61514 5.3728 6.50889 5.47766 6.27695 5.47766C5.65891 5.47766 4.15547 3.24785 3.26313 0.696513C3.09021 0.199996 2.91522 0 2.44925 0H0.624987C0.104164 0 0 0.240967 0 0.506934C0 0.980535 0.618043 3.33326 2.87841 6.445C4.38532 8.56996 6.50681 9.72202 8.43941 9.72202C9.59841 9.72202 9.74146 9.46647 9.74146 9.02551V7.41929C9.74146 6.90749 9.85118 6.80541 10.2185 6.80541C10.4894 6.80541 10.9525 6.93874 12.0345 7.96303C13.2706 9.17758 13.474 9.72202 14.1698 9.72202H15.9927C16.5135 9.72202 16.7747 9.46647 16.6247 8.96092C16.4594 8.45816 15.8691 7.72831 15.0865 6.86236C14.6615 6.36931 14.024 5.83807 13.8303 5.57211C13.5601 5.23114 13.6372 5.07906 13.8303 4.77559C13.8303 4.77559 16.0524 1.70205 16.2837 0.658319H16.2844Z" fill="currentcolor"/>
</svg>
