<svg width="17" height="17" viewBox="0 0 17 17" fill="none" xmlns="http://www.w3.org/2000/svg">
<path d="M8.33333 0C6.06795 0 5.78562 0.0109389 4.89905 0.0484436C4.00883 0.092199 3.40668 0.230237 2.87536 0.436513C2.31928 0.646446 1.81568 0.97513 1.39965 1.39965C0.973946 1.8147 0.645079 2.31859 0.436513 2.87536C0.230237 3.40668 0.092199 4.00883 0.0484436 4.89905C0.00833438 5.78614 0 6.06795 0 8.33333C0 10.5987 0.0109389 10.881 0.0484436 11.7676C0.092199 12.6552 0.230237 13.26 0.436513 13.7913C0.646446 14.3474 0.97513 14.851 1.39965 15.267C1.8147 15.6927 2.31859 16.0216 2.87536 16.2302C3.40668 16.4338 4.01144 16.5745 4.89905 16.6182C5.78614 16.6583 6.06795 16.6667 8.33333 16.6667C10.5987 16.6667 10.881 16.6557 11.7676 16.6182C12.6552 16.5745 13.26 16.4333 13.7913 16.2302C14.3474 16.0202 14.851 15.6915 15.267 15.267C15.6933 14.8524 16.0222 14.3484 16.2302 13.7913C16.4338 13.26 16.5745 12.6552 16.6182 11.7676C16.6583 10.8805 16.6667 10.5987 16.6667 8.33333C16.6667 6.06795 16.6557 5.78562 16.6182 4.89905C16.5745 4.01144 16.4333 3.40355 16.2302 2.87536C16.0202 2.31928 15.6915 1.81568 15.267 1.39965C14.8524 0.973398 14.3484 0.644445 13.7913 0.436513C13.26 0.230237 12.6552 0.092199 11.7676 0.0484436C10.8805 0.00833438 10.5987 0 8.33333 0ZM8.33333 1.50019C10.5581 1.50019 10.8237 1.51113 11.703 1.54863C12.5141 1.58666 12.9558 1.72209 13.2491 1.83669C13.6116 1.97052 13.9398 2.18353 14.2096 2.4602C14.4858 2.7289 14.698 3.05629 14.8305 3.41814C14.9451 3.7114 15.0805 4.15312 15.1186 4.96416C15.1561 5.84344 15.167 6.10962 15.167 8.33385C15.167 10.5581 15.1561 10.8243 15.1154 11.7035C15.0717 12.5146 14.9362 12.9563 14.8222 13.2496C14.6643 13.6408 14.4883 13.9142 14.1976 14.2101C13.9269 14.4851 13.5989 14.697 13.2371 14.831C12.9475 14.9456 12.4995 15.0811 11.6853 15.1191C10.8014 15.1566 10.5409 15.1675 8.31042 15.1675C6.07993 15.1675 5.82 15.1566 4.93499 15.116C4.12395 15.0722 3.6765 14.9368 3.38324 14.8227C2.98735 14.6649 2.71597 14.4888 2.4253 14.1981C2.13204 13.9049 1.94556 13.6257 1.80179 13.2376C1.68511 12.948 1.55176 12.5 1.50852 11.6858C1.47883 10.8123 1.46477 10.5414 1.46477 8.32135C1.46477 6.10233 1.47883 5.83094 1.50852 4.94645C1.55176 4.13229 1.68511 3.68536 1.80179 3.3947C1.94556 2.99829 2.13256 2.72742 2.4253 2.43416C2.71544 2.14402 2.98735 1.95649 3.38324 1.8096C3.6765 1.69552 4.11302 1.56009 4.92718 1.51946C5.81114 1.48769 6.07159 1.47623 8.29895 1.47623L8.33333 1.50019ZM8.33333 4.05624C7.77146 4.05603 7.21506 4.16655 6.69592 4.38147C6.17678 4.5964 5.70508 4.91151 5.30778 5.30882C4.91047 5.70612 4.59535 6.17782 4.38043 6.69696C4.16551 7.2161 4.05499 7.7725 4.0552 8.33438C4.05499 8.89625 4.16551 9.45265 4.38043 9.97179C4.59535 10.4909 4.91047 10.9626 5.30778 11.3599C5.70508 11.7572 6.17678 12.0724 6.69592 12.2873C7.21506 12.5022 7.77146 12.6127 8.33333 12.6125C8.89521 12.6127 9.45161 12.5022 9.97075 12.2873C10.4899 12.0724 10.9616 11.7572 11.3589 11.3599C11.7562 10.9626 12.0713 10.4909 12.2862 9.97179C12.5012 9.45265 12.6117 8.89625 12.6115 8.33438C12.6117 7.7725 12.5012 7.2161 12.2862 6.69696C12.0713 6.17782 11.7562 5.70612 11.3589 5.30882C10.9616 4.91151 10.4899 4.5964 9.97075 4.38147C9.45161 4.16655 8.89521 4.05603 8.33333 4.05624ZM8.33333 11.1123C6.79773 11.1123 5.55538 9.86998 5.55538 8.33438C5.55538 6.79877 6.79773 5.55642 8.33333 5.55642C9.86894 5.55642 11.1113 6.79877 11.1113 8.33438C11.1113 9.86998 9.86894 11.1123 8.33333 11.1123ZM13.784 3.88538C13.7837 4.15087 13.6781 4.40538 13.4903 4.59301C13.3024 4.78064 13.0478 4.88603 12.7823 4.88603C12.6511 4.88603 12.5211 4.86017 12.3998 4.80994C12.2785 4.7597 12.1683 4.68607 12.0755 4.59325C11.9827 4.50043 11.909 4.39023 11.8588 4.26896C11.8086 4.14768 11.7827 4.01769 11.7827 3.88642C11.7827 3.75515 11.8086 3.62517 11.8588 3.50389C11.909 3.38261 11.9827 3.27242 12.0755 3.1796C12.1683 3.08677 12.2785 3.01314 12.3998 2.96291C12.5211 2.91267 12.6511 2.88682 12.7823 2.88682C13.3329 2.88682 13.784 3.33479 13.784 3.88538Z" fill="currentcolor"/>
</svg>
