<svg width="17" height="17" viewBox="0 0 17 17" fill="none" xmlns="http://www.w3.org/2000/svg">
<path d="M12.15 9.98802C11.9411 9.88229 10.924 9.38594 10.7339 9.31511C10.5438 9.2474 10.4057 9.21198 10.2672 9.42083C10.1318 9.62448 9.73281 10.0906 9.61094 10.2266C9.48906 10.3625 9.36927 10.3729 9.16354 10.2807C8.95469 10.175 8.2875 9.95781 7.49531 9.2474C6.87656 8.69688 6.46458 8.01875 6.34219 7.8099C6.22031 7.60365 6.32865 7.48698 6.43177 7.38385C6.52656 7.28906 6.64063 7.14531 6.74635 7.02031C6.84688 6.89531 6.87917 6.81146 6.9526 6.67604C7.02031 6.52969 6.98542 6.41563 6.93385 6.3125C6.88229 6.20938 6.46719 5.18698 6.29375 4.77969C6.12813 4.37552 5.95469 4.42708 5.82708 4.42708C5.70781 4.41615 5.56927 4.41615 5.43125 4.41615C5.29323 4.41615 5.06771 4.46771 4.8776 4.66563C4.6875 4.87448 4.15052 5.37344 4.15052 6.38281C4.15052 7.39479 4.89375 8.37396 4.99688 8.52031C5.1026 8.65573 6.45885 10.7391 8.53958 11.6344C9.03594 11.8432 9.42136 11.9682 9.7224 12.0714C10.2188 12.2286 10.6719 12.2068 11.0297 12.1552C11.4255 12.0901 12.2557 11.6531 12.4297 11.1651C12.6063 10.674 12.6063 10.2672 12.5547 10.175C12.5031 10.0802 12.3677 10.0286 12.1589 9.93646L12.15 9.98802ZM8.37656 15.1042H8.36563C7.13385 15.1042 5.91615 14.7703 4.8526 14.1464L4.60313 13.9974L1.99896 14.6755L2.69896 12.1417L2.53073 11.8813C1.84295 10.7877 1.47807 9.52208 1.47813 8.23021C1.47813 4.44896 4.57344 1.36458 8.38177 1.36458C10.2266 1.36458 11.9573 2.08333 13.2594 3.38542C13.9017 4.0201 14.4112 4.77635 14.7582 5.61003C15.1051 6.44372 15.2826 7.33815 15.2802 8.24115C15.275 12.0198 12.1823 15.1042 8.37917 15.1042H8.37656ZM14.2495 2.39531C12.6651 0.865104 10.5818 0 8.36563 0C3.79479 0 0.0729167 3.70573 0.0703125 8.2599C0.0703125 9.71406 0.45 11.1328 1.17708 12.3885L0 16.6667L4.4 15.5193C5.61891 16.1764 6.98137 16.5221 8.36615 16.5255H8.36875C12.9422 16.5255 16.6641 12.8198 16.6667 8.2625C16.6667 6.05729 15.8068 3.98177 14.2391 2.42188L14.2495 2.39531Z" fill="currentcolor"/>
</svg>
