<svg width="28" height="28" viewBox="0 0 28 28" fill="none" xmlns="http://www.w3.org/2000/svg">
<path d="M24.8938 20.1648C25.2033 19.7819 25.3731 19.3049 25.375 18.8125V18.8016C25.7424 18.5271 26.0139 18.1438 26.1508 17.7062C26.2878 17.2685 26.2832 16.7989 26.1379 16.3639C25.9925 15.929 25.7137 15.551 25.3411 15.2837C24.9685 15.0164 24.5211 14.8734 24.0625 14.875H22.3125C21.8539 14.8734 21.4065 15.0164 21.0339 15.2837C20.6613 15.551 20.3825 15.929 20.2371 16.3639C20.0918 16.7989 20.0872 17.2685 20.2242 17.7062C20.3611 18.1438 20.6326 18.5271 21 18.8016V18.8125C21.0019 19.3049 21.1717 19.7819 21.4812 20.1648C20.9784 20.2568 20.5237 20.522 20.1961 20.9143C19.8684 21.3067 19.6885 21.8014 19.6875 22.3125V26.6875C19.6875 26.8035 19.7336 26.9148 19.8156 26.9969C19.8977 27.0789 20.009 27.125 20.125 27.125C20.241 27.125 20.3523 27.0789 20.4344 26.9969C20.5164 26.9148 20.5625 26.8035 20.5625 26.6875V22.3125C20.5625 21.9644 20.7008 21.6306 20.9469 21.3844C21.1931 21.1383 21.5269 21 21.875 21V21.413C21.8751 21.5276 21.9202 21.6376 22.0006 21.7193L22.3799 22.1056C22.313 22.2115 22.2677 22.3295 22.2464 22.453L21.8811 24.6466C21.8622 24.7596 21.8885 24.8756 21.9542 24.9695L22.8729 26.282C22.9133 26.3395 22.9669 26.3865 23.0293 26.419C23.0917 26.4514 23.1609 26.4683 23.2312 26.4683H23.2413C23.3134 26.4666 23.384 26.4471 23.4467 26.4115C23.5095 26.376 23.5624 26.3254 23.6009 26.2645L24.4322 24.952C24.4901 24.8611 24.5121 24.7519 24.4939 24.6457L24.1286 22.4516C24.1068 22.3252 24.0596 22.2045 23.9899 22.0968L24.3692 21.7236C24.4107 21.683 24.4437 21.6344 24.4662 21.5809C24.4887 21.5273 24.5004 21.4698 24.5004 21.4117V21C24.8485 21 25.1824 21.1383 25.4285 21.3844C25.6747 21.6306 25.8129 21.9644 25.8129 22.3125V26.6875C25.8129 26.8035 25.859 26.9148 25.9411 26.9969C26.0231 27.0789 26.1344 27.125 26.2504 27.125C26.3665 27.125 26.4777 27.0789 26.5598 26.9969C26.6418 26.9148 26.6879 26.8035 26.6879 26.6875V22.3125C26.687 21.8013 26.507 21.3066 26.1792 20.9142C25.8515 20.5219 25.3966 20.2567 24.8938 20.1648ZM21.875 18.8125V17.7704L22.3186 17.5486C22.901 17.804 23.5298 17.9364 24.1657 17.9375H24.5V18.8125C24.5 19.1606 24.3617 19.4944 24.1156 19.7406C23.8694 19.9867 23.5356 20.125 23.1875 20.125C22.8394 20.125 22.5056 19.9867 22.2594 19.7406C22.0133 19.4944 21.875 19.1606 21.875 18.8125ZM22.3125 15.75H24.0625C24.2587 15.7449 24.4535 15.785 24.6318 15.8672C24.8101 15.9495 24.967 16.0716 25.0905 16.2242C25.214 16.3768 25.3008 16.5558 25.344 16.7473C25.3873 16.9388 25.3859 17.1376 25.34 17.3285C25.3064 17.2496 25.2503 17.1823 25.1787 17.135C25.1072 17.0877 25.0233 17.0625 24.9375 17.0625H24.1657C23.5902 17.061 23.0228 16.9262 22.5081 16.6688C22.4473 16.6384 22.3804 16.6226 22.3125 16.6226C22.2446 16.6226 22.1777 16.6384 22.1169 16.6688L21.2419 17.1063C21.148 17.1546 21.075 17.2355 21.0363 17.3338C21.0146 17.2449 21.0025 17.154 21 17.0625C21 16.7144 21.1383 16.3806 21.3844 16.1344C21.6306 15.8883 21.9644 15.75 22.3125 15.75ZM23.2142 25.2438L22.7736 24.616L23.1096 22.5991C23.1149 22.5826 23.1253 22.5682 23.1393 22.558C23.1533 22.5478 23.1702 22.5423 23.1875 22.5423C23.2048 22.5423 23.2217 22.5478 23.2357 22.558C23.2497 22.5682 23.2601 22.5826 23.2654 22.5991L23.6036 24.6282L23.2142 25.2438ZM23.625 21.2297L23.1906 21.6567H23.1875C23.1801 21.6567 23.1735 21.6567 23.1661 21.6567L22.75 21.2341V21H23.625V21.2297Z" fill="#007DC5"/>
<path d="M6.51875 20.1648C6.82833 19.7819 6.99808 19.3049 7 18.8125C7 18.6965 6.95391 18.5852 6.87186 18.5031C6.78981 18.4211 6.67853 18.375 6.5625 18.375C6.44647 18.375 6.33519 18.4211 6.25314 18.5031C6.17109 18.5852 6.125 18.6965 6.125 18.8125C6.125 19.1606 5.98672 19.4944 5.74058 19.7406C5.49444 19.9867 5.1606 20.125 4.8125 20.125C4.4644 20.125 4.13056 19.9867 3.88442 19.7406C3.63828 19.4944 3.5 19.1606 3.5 18.8125V17.5H6.5625C6.67853 17.5 6.78981 17.4539 6.87186 17.3719C6.95391 17.2898 7 17.1785 7 17.0625C6.99931 16.4826 6.76861 15.9266 6.35853 15.5165C5.94844 15.1064 5.39245 14.8757 4.8125 14.875H3.0625C2.94647 14.875 2.83519 14.9211 2.75314 15.0031C2.67109 15.0852 2.625 15.1965 2.625 15.3125V18.8125C2.62692 19.3049 2.79667 19.7819 3.10625 20.1648C2.60344 20.2568 2.14872 20.522 1.82106 20.9143C1.49339 21.3067 1.31345 21.8013 1.3125 22.3125V26.6875C1.3125 26.8035 1.35859 26.9148 1.44064 26.9969C1.52269 27.0789 1.63397 27.125 1.75 27.125C1.86603 27.125 1.97731 27.0789 2.05936 26.9969C2.14141 26.9148 2.1875 26.8035 2.1875 26.6875V22.3125C2.1875 21.9644 2.32578 21.6306 2.57192 21.3844C2.81806 21.1383 3.1519 21 3.5 21V21.413C3.50013 21.5276 3.54522 21.6375 3.62556 21.7193L4.09675 22.2005C3.9792 22.334 3.90118 22.4976 3.87144 22.673L3.50612 24.8666C3.48725 24.9797 3.51348 25.0956 3.57919 25.1895L4.49794 26.502C4.53839 26.5594 4.59207 26.6062 4.65443 26.6385C4.7168 26.6708 4.78602 26.6876 4.85625 26.6875H4.86631C4.93842 26.6858 5.00898 26.6663 5.07172 26.6307C5.13447 26.5951 5.18744 26.5446 5.22594 26.4836L6.05719 25.1711C6.11509 25.0803 6.13708 24.9711 6.11888 24.8649L5.75356 22.6708C5.72336 22.4913 5.64227 22.3243 5.51994 22.1896L5.99375 21.7249C6.03525 21.6843 6.06822 21.6357 6.09076 21.5822C6.11329 21.5286 6.12493 21.4711 6.125 21.413V21C6.4731 21 6.80694 21.1383 7.05308 21.3844C7.29922 21.6306 7.4375 21.9644 7.4375 22.3125V26.6875C7.4375 26.8035 7.48359 26.9148 7.56564 26.9969C7.64769 27.0789 7.75897 27.125 7.875 27.125C7.99103 27.125 8.10231 27.0789 8.18436 26.9969C8.26641 26.9148 8.3125 26.8035 8.3125 26.6875V22.3125C8.31155 21.8013 8.13161 21.3067 7.80395 20.9143C7.47628 20.522 7.02156 20.2568 6.51875 20.1648ZM5.25 20.9563V21.2301L4.80244 21.6694L4.375 21.2319V20.9563C4.66369 21.0152 4.96131 21.0152 5.25 20.9563ZM3.5 15.75H4.8125C5.08387 15.7503 5.34849 15.8346 5.57008 15.9913C5.79167 16.1479 5.95937 16.3693 6.05019 16.625H3.5V15.75ZM4.83919 25.4625L4.39862 24.8347L4.73462 22.8178C4.73993 22.8013 4.75033 22.787 4.76432 22.7768C4.77832 22.7666 4.79519 22.7611 4.8125 22.7611C4.82981 22.7611 4.84668 22.7666 4.86068 22.7768C4.87467 22.787 4.88507 22.8013 4.89038 22.8178L5.22856 24.8469L4.83919 25.4625Z" fill="#007DC5"/>
<path d="M14 14C12.9561 14.0012 11.9552 14.4164 11.217 15.1545C10.4789 15.8927 10.0637 16.8936 10.0625 17.9375V18.375C10.0624 18.9128 10.2044 19.441 10.4742 19.9062C10.5352 20.0003 10.6301 20.0673 10.7391 20.0935C10.8482 20.1196 10.9631 20.1029 11.0602 20.0468C11.1573 19.9906 11.2291 19.8993 11.2608 19.7918C11.2925 19.6842 11.2817 19.5686 11.2306 19.4688C11.0383 19.1363 10.9372 18.759 10.9375 18.375V17.9375C10.9375 17.1253 11.2602 16.3463 11.8345 15.772C12.4088 15.1977 13.1878 14.875 14 14.875C14.8122 14.875 15.5912 15.1977 16.1655 15.772C16.7399 16.3463 17.0625 17.1253 17.0625 17.9375V18.375C17.0628 18.7526 16.9645 19.1237 16.7773 19.4517C16.5902 19.7796 16.3207 20.053 15.9954 20.2449C15.9009 20.2114 15.8041 20.1847 15.7058 20.1648C16.0156 19.782 16.1855 19.3049 16.1875 18.8125V17.5C16.1875 17.384 16.1414 17.2727 16.0594 17.1906C15.9773 17.1086 15.866 17.0625 15.75 17.0625C15.53 17.0632 15.312 17.0202 15.1087 16.936C14.9054 16.8518 14.7208 16.7281 14.5657 16.5721L14.3093 16.3157C14.2273 16.2337 14.116 16.1876 14 16.1876C13.884 16.1876 13.7727 16.2337 13.6907 16.3157L13.4343 16.5721C13.2792 16.7281 13.0946 16.8518 12.8913 16.936C12.688 17.0202 12.47 17.0632 12.25 17.0625C12.134 17.0625 12.0227 17.1086 11.9406 17.1906C11.8586 17.2727 11.8125 17.384 11.8125 17.5V18.8125C11.8144 19.3049 11.9842 19.7819 12.2938 20.1648C11.7909 20.2568 11.3362 20.522 11.0086 20.9143C10.6809 21.3067 10.501 21.8013 10.5 22.3125V26.6875C10.5 26.8035 10.5461 26.9148 10.6281 26.9969C10.7102 27.0789 10.8215 27.125 10.9375 27.125C11.0535 27.125 11.1648 27.0789 11.2469 26.9969C11.3289 26.9148 11.375 26.8035 11.375 26.6875V22.3125C11.375 21.9644 11.5133 21.6306 11.7594 21.3844C12.0056 21.1383 12.3394 21 12.6875 21V21.413C12.6876 21.5276 12.7327 21.6375 12.8131 21.7193L13.6723 22.5943C13.7531 22.6767 13.8632 22.7239 13.9786 22.7255H13.9821C14.0967 22.7256 14.2068 22.6805 14.2883 22.5999L15.1791 21.7249C15.2206 21.6843 15.2535 21.6357 15.2761 21.5822C15.2986 21.5286 15.3103 21.4711 15.3103 21.413V21C15.6584 21 15.9923 21.1383 16.2384 21.3844C16.4845 21.6306 16.6228 21.9644 16.6228 22.3125V26.6875C16.6228 26.8035 16.6689 26.9148 16.751 26.9969C16.833 27.0789 16.9443 27.125 17.0603 27.125C17.1764 27.125 17.2876 27.0789 17.3697 26.9969C17.4517 26.9148 17.4978 26.8035 17.4978 26.6875V22.3125C17.4974 22.0166 17.4366 21.7238 17.3193 21.4521C17.2019 21.1804 17.0304 20.9355 16.8153 20.7323C17.1661 20.4477 17.4489 20.0884 17.6431 19.6806C17.8372 19.2727 17.9378 18.8267 17.9375 18.375V17.9375C17.9364 16.8936 17.5211 15.8927 16.783 15.1545C16.0448 14.4164 15.0439 14.0012 14 14ZM12.6875 17.9003C13.1803 17.8162 13.637 17.5878 14 17.2441C14.363 17.5878 14.8197 17.8162 15.3125 17.9003V18.8125C15.3125 19.1606 15.1742 19.4944 14.9281 19.7406C14.6819 19.9867 14.3481 20.125 14 20.125C13.6519 20.125 13.3181 19.9867 13.0719 19.7406C12.8258 19.4944 12.6875 19.1606 12.6875 18.8125V17.9003ZM13.9899 21.6694L13.5625 21.2319V20.9563C13.8512 21.0152 14.1488 21.0152 14.4375 20.9563V21.2301L13.9899 21.6694Z" fill="#007DC5"/>
<path d="M14 24.0625C14.2416 24.0625 14.4375 23.8666 14.4375 23.625C14.4375 23.3834 14.2416 23.1875 14 23.1875C13.7584 23.1875 13.5625 23.3834 13.5625 23.625C13.5625 23.8666 13.7584 24.0625 14 24.0625Z" fill="#007DC5"/>
<path d="M14 25.8125C14.2416 25.8125 14.4375 25.6166 14.4375 25.375C14.4375 25.1334 14.2416 24.9375 14 24.9375C13.7584 24.9375 13.5625 25.1334 13.5625 25.375C13.5625 25.6166 13.7584 25.8125 14 25.8125Z" fill="#007DC5"/>
<path d="M13.1251 6.99997C13.009 6.99997 12.8977 7.04606 12.8157 7.12811C12.7337 7.21015 12.6876 7.32143 12.6876 7.43747C12.6876 7.5535 12.7337 7.66478 12.8157 7.74683C12.8977 7.82887 13.009 7.87497 13.1251 7.87497H14.875C14.9911 7.87497 15.1024 7.82887 15.1844 7.74683C15.2665 7.66478 15.3125 7.5535 15.3125 7.43747C15.3125 7.32143 15.2665 7.21015 15.1844 7.12811C15.1024 7.04606 14.9911 6.99997 14.875 6.99997H14.4376V4.81246C14.4376 4.73788 14.4186 4.66452 14.3823 4.59937C14.346 4.53421 14.2936 4.47941 14.2302 4.44018C14.1668 4.40094 14.0944 4.37858 14.0198 4.3752C13.9453 4.37183 13.8712 4.38756 13.8045 4.4209L12.9295 4.8584C12.8781 4.88408 12.8322 4.91964 12.7945 4.96304C12.7569 5.00645 12.7281 5.05685 12.7099 5.11137C12.6917 5.16589 12.6844 5.22346 12.6885 5.28079C12.6925 5.33813 12.7078 5.3941 12.7335 5.44552C12.7592 5.49695 12.7947 5.5428 12.8381 5.58048C12.8815 5.61816 12.9319 5.64692 12.9865 5.66512C13.041 5.68332 13.0986 5.69061 13.1559 5.68656C13.2132 5.68251 13.2692 5.66721 13.3206 5.64153L13.5626 5.52034V6.99997H13.1251Z" fill="#007DC5"/>
<path d="M24.5 7.875C24.5 7.5269 24.3617 7.19306 24.1156 6.94692C23.8694 6.70078 23.5356 6.5625 23.1875 6.5625C22.8394 6.5625 22.5056 6.70078 22.2594 6.94692C22.0133 7.19306 21.875 7.5269 21.875 7.875C21.875 7.99103 21.9211 8.10231 22.0031 8.18436C22.0852 8.26641 22.1965 8.3125 22.3125 8.3125C22.4285 8.3125 22.5398 8.26641 22.6219 8.18436C22.7039 8.10231 22.75 7.99103 22.75 7.875C22.7498 7.77237 22.7857 7.67295 22.8515 7.59412C22.9172 7.51529 23.0085 7.46208 23.1095 7.44378C23.2105 7.42548 23.3147 7.44326 23.4039 7.49402C23.4931 7.54478 23.5616 7.62528 23.5974 7.72144L22.0032 9.31569C21.942 9.37687 21.9004 9.45482 21.8835 9.53967C21.8666 9.62453 21.8753 9.71248 21.9084 9.79241C21.9415 9.87234 21.9976 9.94066 22.0695 9.98874C22.1414 10.0368 22.226 10.0625 22.3125 10.0625H24.0625C24.1785 10.0625 24.2898 10.0164 24.3719 9.93436C24.4539 9.85231 24.5 9.74103 24.5 9.625C24.5 9.50897 24.4539 9.39769 24.3719 9.31564C24.2898 9.23359 24.1785 9.1875 24.0625 9.1875H23.3686L24.3718 8.18431C24.4539 8.10228 24.5 7.99102 24.5 7.875Z" fill="#007DC5"/>
<path d="M5.03125 10.9375H4.375C4.25897 10.9375 4.14769 10.9836 4.06564 11.0656C3.98359 11.1477 3.9375 11.259 3.9375 11.375C3.9375 11.491 3.98359 11.6023 4.06564 11.6844C4.14769 11.7664 4.25897 11.8125 4.375 11.8125H5.03125C5.32133 11.8125 5.59953 11.6973 5.80465 11.4921C6.00977 11.287 6.125 11.0088 6.125 10.7188C6.12429 10.4813 6.04542 10.2507 5.90056 10.0625C6.04542 9.87434 6.12429 9.64371 6.125 9.40625C6.125 9.11617 6.00977 8.83797 5.80465 8.63285C5.59953 8.42773 5.32133 8.3125 5.03125 8.3125H4.375C4.25897 8.3125 4.14769 8.35859 4.06564 8.44064C3.98359 8.52269 3.9375 8.63397 3.9375 8.75C3.9375 8.86603 3.98359 8.97731 4.06564 9.05936C4.14769 9.14141 4.25897 9.1875 4.375 9.1875H5.03125C5.08927 9.1875 5.14491 9.21055 5.18593 9.25157C5.22695 9.29259 5.25 9.34823 5.25 9.40625C5.25 9.46427 5.22695 9.51991 5.18593 9.56093C5.14491 9.60195 5.08927 9.625 5.03125 9.625H4.375C4.25897 9.625 4.14769 9.67109 4.06564 9.75314C3.98359 9.83519 3.9375 9.94647 3.9375 10.0625C3.9375 10.1785 3.98359 10.2898 4.06564 10.3719C4.14769 10.4539 4.25897 10.5 4.375 10.5H5.03125C5.08927 10.5 5.14491 10.523 5.18593 10.5641C5.22695 10.6051 5.25 10.6607 5.25 10.7188C5.25 10.7768 5.22695 10.8324 5.18593 10.8734C5.14491 10.9145 5.08927 10.9375 5.03125 10.9375Z" fill="#007DC5"/>
<path d="M1.75 19.25V13.5625C1.75 13.4465 1.70391 13.3352 1.62186 13.2531C1.53981 13.1711 1.42853 13.125 1.3125 13.125C1.19647 13.125 1.08519 13.1711 1.00314 13.2531C0.921094 13.3352 0.875 13.4465 0.875 13.5625V19.25C0.875 19.366 0.921094 19.4773 1.00314 19.5594C1.08519 19.6414 1.19647 19.6875 1.3125 19.6875C1.42853 19.6875 1.53981 19.6414 1.62186 19.5594C1.70391 19.4773 1.75 19.366 1.75 19.25Z" fill="#007DC5"/>
<path d="M5.12181 4.94059C5.03977 4.85858 4.92851 4.8125 4.8125 4.8125C4.69649 4.8125 4.58523 4.85858 4.50319 4.94059L1.00319 8.44059C0.921135 8.52262 0.875025 8.63388 0.875 8.74991V11.8124C0.875 11.9284 0.921094 12.0397 1.00314 12.1218C1.08519 12.2038 1.19647 12.2499 1.3125 12.2499C1.42853 12.2499 1.53981 12.2038 1.62186 12.1218C1.70391 12.0397 1.75 11.9284 1.75 11.8124V8.93103L4.8125 5.86853L7.875 8.93103V19.2499C7.875 19.3659 7.92109 19.4772 8.00314 19.5593C8.08519 19.6413 8.19647 19.6874 8.3125 19.6874C8.42853 19.6874 8.53981 19.6413 8.62186 19.5593C8.70391 19.4772 8.75 19.3659 8.75 19.2499V8.74991C8.74998 8.63388 8.70387 8.52262 8.62181 8.44059L5.12181 4.94059Z" fill="#007DC5"/>
<path d="M26.9968 6.69059L23.4968 3.19059C23.4148 3.10858 23.3035 3.0625 23.1875 3.0625C23.0715 3.0625 22.9602 3.10858 22.8782 3.19059L19.3782 6.69059C19.2961 6.77262 19.25 6.88388 19.25 6.99991V13.9999C19.25 14.1159 19.2961 14.2272 19.3781 14.3093C19.4602 14.3913 19.5715 14.4374 19.6875 14.4374C19.8035 14.4374 19.9148 14.3913 19.9969 14.3093C20.0789 14.2272 20.125 14.1159 20.125 13.9999V7.18103L23.1875 4.11853L26.25 7.18103V9.62491C26.25 9.74094 26.2961 9.85222 26.3781 9.93427C26.4602 10.0163 26.5715 10.0624 26.6875 10.0624C26.8035 10.0624 26.9148 10.0163 26.9969 9.93427C27.0789 9.85222 27.125 9.74094 27.125 9.62491V6.99991C27.125 6.88388 27.0789 6.77262 26.9968 6.69059Z" fill="#007DC5"/>
<path d="M26.6875 10.9375C26.5715 10.9375 26.4602 10.9836 26.3781 11.0656C26.2961 11.1477 26.25 11.259 26.25 11.375V14.4375C26.25 14.5535 26.2961 14.6648 26.3781 14.7469C26.4602 14.8289 26.5715 14.875 26.6875 14.875C26.8035 14.875 26.9148 14.8289 26.9969 14.7469C27.0789 14.6648 27.125 14.5535 27.125 14.4375V11.375C27.125 11.259 27.0789 11.1477 26.9969 11.0656C26.9148 10.9836 26.8035 10.9375 26.6875 10.9375Z" fill="#007DC5"/>
<path d="M14.3093 1.00309C14.2273 0.921075 14.116 0.875 14 0.875C13.884 0.875 13.7727 0.921075 13.6907 1.00309L10.1907 4.50309C10.1086 4.58512 10.0625 4.69638 10.0625 4.81241V14.4374C10.0625 14.5534 10.1086 14.6647 10.1906 14.7468C10.2727 14.8288 10.384 14.8749 10.5 14.8749C10.616 14.8749 10.7273 14.8288 10.8094 14.7468C10.8914 14.6647 10.9375 14.5534 10.9375 14.4374V4.99353L14 1.93103L17.0625 4.99353V6.56241C17.0625 6.67844 17.1086 6.78972 17.1906 6.87177C17.2727 6.95381 17.384 6.99991 17.5 6.99991C17.616 6.99991 17.7273 6.95381 17.8094 6.87177C17.8914 6.78972 17.9375 6.67844 17.9375 6.56241V4.81241C17.9375 4.69638 17.8914 4.58512 17.8093 4.50309L14.3093 1.00309Z" fill="#007DC5"/>
<path d="M17.5 7.875C17.384 7.875 17.2727 7.92109 17.1906 8.00314C17.1086 8.08519 17.0625 8.19647 17.0625 8.3125V14C17.0625 14.116 17.1086 14.2273 17.1906 14.3094C17.2727 14.3914 17.384 14.4375 17.5 14.4375C17.616 14.4375 17.7273 14.3914 17.8094 14.3094C17.8914 14.2273 17.9375 14.116 17.9375 14V8.3125C17.9375 8.19647 17.8914 8.08519 17.8094 8.00314C17.7273 7.92109 17.616 7.875 17.5 7.875Z" fill="#007DC5"/>
<path d="M22.3125 11.8125H24.0625C24.1785 11.8125 24.2898 11.7664 24.3719 11.6844C24.4539 11.6023 24.5 11.491 24.5 11.375C24.5 11.259 24.4539 11.1477 24.3719 11.0656C24.2898 10.9836 24.1785 10.9375 24.0625 10.9375H22.3125C22.1965 10.9375 22.0852 10.9836 22.0031 11.0656C21.9211 11.1477 21.875 11.259 21.875 11.375C21.875 11.491 21.9211 11.6023 22.0031 11.6844C22.0852 11.7664 22.1965 11.8125 22.3125 11.8125Z" fill="#007DC5"/>
<path d="M22.3125 13.5625H24.0625C24.1785 13.5625 24.2898 13.5164 24.3719 13.4344C24.4539 13.3523 24.5 13.241 24.5 13.125C24.5 13.009 24.4539 12.8977 24.3719 12.8156C24.2898 12.7336 24.1785 12.6875 24.0625 12.6875H22.3125C22.1965 12.6875 22.0852 12.7336 22.0031 12.8156C21.9211 12.8977 21.875 13.009 21.875 13.125C21.875 13.241 21.9211 13.3523 22.0031 13.4344C22.0852 13.5164 22.1965 13.5625 22.3125 13.5625Z" fill="#007DC5"/>
<path d="M13.125 9.625H14.875C14.991 9.625 15.1023 9.57891 15.1844 9.49686C15.2664 9.41481 15.3125 9.30353 15.3125 9.1875C15.3125 9.07147 15.2664 8.96019 15.1844 8.87814C15.1023 8.79609 14.991 8.75 14.875 8.75H13.125C13.009 8.75 12.8977 8.79609 12.8156 8.87814C12.7336 8.96019 12.6875 9.07147 12.6875 9.1875C12.6875 9.30353 12.7336 9.41481 12.8156 9.49686C12.8977 9.57891 13.009 9.625 13.125 9.625Z" fill="#007DC5"/>
<path d="M13.125 11.375H14.875C14.991 11.375 15.1023 11.3289 15.1844 11.2469C15.2664 11.1648 15.3125 11.0535 15.3125 10.9375C15.3125 10.8215 15.2664 10.7102 15.1844 10.6281C15.1023 10.5461 14.991 10.5 14.875 10.5H13.125C13.009 10.5 12.8977 10.5461 12.8156 10.6281C12.7336 10.7102 12.6875 10.8215 12.6875 10.9375C12.6875 11.0535 12.7336 11.1648 12.8156 11.2469C12.8977 11.3289 13.009 11.375 13.125 11.375Z" fill="#007DC5"/>
<path d="M13.125 13.125H14.875C14.991 13.125 15.1023 13.0789 15.1844 12.9969C15.2664 12.9148 15.3125 12.8035 15.3125 12.6875C15.3125 12.5715 15.2664 12.4602 15.1844 12.3781C15.1023 12.2961 14.991 12.25 14.875 12.25H13.125C13.009 12.25 12.8977 12.2961 12.8156 12.3781C12.7336 12.4602 12.6875 12.5715 12.6875 12.6875C12.6875 12.8035 12.7336 12.9148 12.8156 12.9969C12.8977 13.0789 13.009 13.125 13.125 13.125Z" fill="#007DC5"/>
<path d="M3.5 13.5625C3.5 13.6785 3.54609 13.7898 3.62814 13.8719C3.71019 13.9539 3.82147 14 3.9375 14H5.6875C5.80353 14 5.91481 13.9539 5.99686 13.8719C6.07891 13.7898 6.125 13.6785 6.125 13.5625C6.125 13.4465 6.07891 13.3352 5.99686 13.2531C5.91481 13.1711 5.80353 13.125 5.6875 13.125H3.9375C3.82147 13.125 3.71019 13.1711 3.62814 13.2531C3.54609 13.3352 3.5 13.4465 3.5 13.5625Z" fill="#007DC5"/>
</svg>
