<svg width="25" height="26" viewBox="0 0 25 26" fill="none" xmlns="http://www.w3.org/2000/svg">
<path d="M24.1251 12.5242C23.8922 11.7739 23.1819 11.2729 22.3965 11.3044L22.229 11.3112C21.7376 11.3313 21.2754 11.5338 20.9292 11.88L18.3396 14.4425C18.2782 14.3488 18.2078 14.2597 18.1277 14.1766C17.7873 13.8228 17.3103 13.6201 16.8194 13.6201H13.1666C12.4773 13.6201 11.8053 13.5307 11.1687 13.3546C9.51074 12.8957 7.92874 13.227 6.59364 14.3126C6.03045 14.7708 5.62561 15.2708 5.37728 15.6241C5.09604 15.4285 4.76144 15.326 4.4144 15.3318C3.97423 15.3394 3.56367 15.518 3.25855 15.8351L0.897487 18.286C0.723107 18.467 0.726684 18.7546 0.905784 18.9313L2.8045 20.8041C2.98489 20.9819 3.27571 20.9801 3.45381 20.7995C3.63162 20.619 3.62976 20.3285 3.44923 20.1504L1.87352 18.5963L3.91973 16.472C4.05434 16.3322 4.23559 16.2532 4.42971 16.2501C4.62569 16.2465 4.8075 16.3195 4.94698 16.4547L8.59779 19.9975C8.73698 20.1326 8.81523 20.3137 8.81794 20.5077C8.82066 20.7018 8.74756 20.8851 8.61209 21.0241L6.60137 23.0872L6.08395 22.5944C5.90027 22.4195 5.60974 22.4266 5.43478 22.6103C5.26012 22.794 5.26727 23.0845 5.45095 23.2592L6.29681 24.065C6.38579 24.1495 6.49966 24.1916 6.61338 24.1916C6.73297 24.1916 6.85228 24.1451 6.94226 24.053L9.2697 21.6649C9.57654 21.3502 9.74205 20.9346 9.73605 20.4951C9.73318 20.2941 9.69427 20.0992 9.62304 19.9175L10.4429 19.8221C10.8232 19.7779 11.2102 19.7553 11.5931 19.7553H17.1511C17.2362 19.7553 17.3223 19.7517 17.4072 19.7445L17.9397 19.7002C18.4796 19.6554 18.9999 19.468 19.4446 19.1587C19.6629 19.0068 19.8609 18.8272 20.0332 18.6245L23.7784 14.2182C24.1786 13.7474 24.3081 13.1143 24.1251 12.5242ZM23.0789 13.6235L19.3335 18.0298C19.2126 18.172 19.0736 18.2982 18.9202 18.4049C18.6079 18.6222 18.2424 18.7536 17.8636 18.7852L17.3308 18.8296C17.2714 18.8346 17.2108 18.8372 17.1511 18.8372H11.5931C11.1749 18.8372 10.7521 18.8616 10.3369 18.9098L9.00935 19.0643L6.07251 16.2325C6.27249 15.9361 6.63999 15.4583 7.173 15.025C8.28336 14.1222 9.54521 13.8578 10.9238 14.2394C11.6401 14.4376 12.3947 14.5381 13.1666 14.5381H16.8194C17.0621 14.5381 17.298 14.6385 17.4665 14.8133C17.5897 14.9412 17.6678 15.098 17.7 15.2623C17.6994 15.3038 17.7046 15.3451 17.7153 15.3853C17.7275 15.6006 17.6629 15.8201 17.5196 15.9985L17.5054 16.0162C17.3342 16.2296 17.0789 16.3522 16.8051 16.3522H13.625C13.3714 16.3522 13.166 16.5576 13.166 16.8111C13.166 17.0648 13.3714 17.2703 13.625 17.2703H16.8051C17.3588 17.2703 17.8751 17.0226 18.2217 16.5904L18.2359 16.5728C18.5014 16.2421 18.633 15.8418 18.6343 15.4424L21.5765 12.5309C21.7611 12.3465 22.006 12.2391 22.2665 12.2285L22.4341 12.2218C22.8043 12.206 23.1387 12.4428 23.2482 12.7963C23.3376 13.0844 23.2743 13.3936 23.0789 13.6235Z" fill="#F6A500"/>
<path d="M4.41938 17.2183C3.73388 17.2183 3.17627 17.776 3.17627 18.4614C3.17627 19.147 3.73388 19.7048 4.41938 19.7048C5.10489 19.7048 5.66264 19.147 5.66264 18.4614C5.66264 17.776 5.10489 17.2183 4.41938 17.2183ZM4.41938 18.7865C4.24014 18.7865 4.09423 18.6408 4.09423 18.4614C4.09423 18.2823 4.24014 18.1365 4.41938 18.1365C4.59848 18.1365 4.7444 18.2823 4.7444 18.4614C4.7444 18.6408 4.59848 18.7865 4.41938 18.7865Z" fill="#F6A500"/>
<path d="M11.6745 16.4199L11.6509 16.4255C11.4041 16.4834 11.2508 16.7306 11.309 16.9773C11.3585 17.1888 11.5472 17.3315 11.7554 17.3315C11.7901 17.3315 11.8255 17.3274 11.8607 17.3191L11.8845 17.3137C12.1312 17.2557 12.2843 17.0085 12.2264 16.7618C12.1684 16.515 11.9214 16.3622 11.6745 16.4199Z" fill="#F6A500"/>
<path d="M4.36031 21.2786L4.33657 21.2841C4.0898 21.3422 3.93674 21.5891 3.99468 21.8359C4.04431 22.0475 4.23286 22.1901 4.44114 22.1901C4.47604 22.1901 4.51123 22.1862 4.54671 22.1779L4.57031 22.1725C4.81708 22.1146 4.97028 21.8674 4.91221 21.6206C4.85427 21.3737 4.60708 21.2208 4.36031 21.2786Z" fill="#F6A500"/>
<path d="M14.205 12.4341C16.8841 12.4341 19.0636 10.2546 19.0636 7.57553C19.0636 4.89647 16.8841 2.7168 14.205 2.7168C13.1061 2.7168 12.0696 3.07471 11.2074 3.75163C11.0104 3.90612 10.824 4.07721 10.6532 4.26032C10.3977 4.53398 10.1738 4.8371 9.98802 5.16083C9.56816 5.89253 9.34644 6.72766 9.34644 7.57553C9.34644 10.2546 11.526 12.4341 14.205 12.4341ZM10.7844 5.61773C10.9352 5.35495 11.1167 5.10904 11.3243 4.88688C11.4629 4.73811 11.6144 4.59935 11.7742 4.47389C12.4734 3.92515 13.314 3.63504 14.205 3.63504C16.3777 3.63504 18.1455 5.40258 18.1455 7.57553C18.1455 9.74833 16.3777 11.516 14.205 11.516C12.0322 11.516 10.2644 9.74833 10.2644 7.57553C10.2644 6.8876 10.4442 6.21068 10.7844 5.61773Z" fill="#F6A500"/>
<path d="M14.6121 9.14693C14.427 9.25694 14.1865 9.29599 14.0234 9.29599C13.7139 9.29599 13.4425 8.93121 13.4425 8.5155C13.4425 8.26201 13.237 8.05645 12.9835 8.05645C12.7298 8.05645 12.5244 8.26201 12.5244 8.5155C12.5244 9.31058 13.0088 9.97949 13.6608 10.1636C13.6757 10.4038 13.8745 10.5942 14.1184 10.5942C14.3689 10.5942 14.5722 10.3935 14.5771 10.144C15.2401 9.9719 15.8123 9.47824 15.8123 8.61549C15.8123 7.58109 14.756 7.01675 14.2136 7.01675C14.2067 7.01675 13.5328 6.95682 13.5328 6.5258C13.5328 5.8639 14.2067 5.84531 14.2136 5.84531C14.3412 5.84531 14.4964 5.92113 14.6187 6.04343C14.6775 6.10237 14.6838 6.10852 14.6838 6.356C14.6838 6.60949 14.8895 6.81405 15.1428 6.81405C15.3963 6.81405 15.602 6.60777 15.602 6.35414C15.602 6.06074 15.602 5.72829 15.268 5.39412C15.0671 5.19357 14.8265 5.0508 14.5762 4.97956C14.5622 4.73852 14.3631 4.54712 14.1184 4.54712C13.8649 4.54712 13.6594 4.75283 13.6594 5.00631V5.03635C13.1578 5.22275 12.6147 5.66821 12.6147 6.5258C12.6147 7.57766 13.708 7.93328 14.2103 7.93471C14.3482 7.94587 14.8941 8.18763 14.8941 8.61535C14.8941 8.86712 14.8072 9.03091 14.6121 9.14693Z" fill="#F6A500"/>
</svg>
