<svg width="32" height="33" viewBox="0 0 32 33" fill="none" xmlns="http://www.w3.org/2000/svg">
<g clip-path="url(#clip0_15_264)">
<path d="M15.9999 0.0441895L16.5599 1.81211H18.3999L16.9599 2.93714L17.5199 4.70506L15.9999 3.58002L14.4799 4.70506L15.0399 2.93714L13.5999 1.81211H15.4399L15.9999 0.0441895Z" fill="currentcolor"/>
<path d="M15.9999 27.3658L16.5599 29.1337H18.3999L16.9599 30.1783L17.5199 32.0265L15.9999 30.9015L14.48 32.0265L15.04 30.1783L13.6 29.1337H15.4399L15.9999 27.3658Z" fill="currentcolor"/>
<path d="M22.7199 25.1158L23.2799 26.8837H25.2L23.6799 28.0087L24.2399 29.7766L22.7199 28.6516L21.1999 29.7766L21.8399 28.0087L20.3199 26.8837H22.1599L22.7199 25.1158Z" fill="currentcolor"/>
<path d="M27.36 20.4551L27.92 22.223H29.84L28.32 23.348L28.88 25.1159L27.36 23.9908L25.84 25.1159L26.48 23.348L24.96 22.223H26.8L27.36 20.4551Z" fill="currentcolor"/>
<path d="M29.6 13.7051L30.16 15.473H32L30.48 16.598L31.04 18.3659L29.6 17.2408L28.08 18.3659L28.64 16.598L27.12 15.473H28.96L29.6 13.7051Z" fill="currentcolor"/>
<path d="M27.36 6.87463L27.92 8.72285H29.84L28.32 9.7675L28.88 11.5354L27.36 10.4907L25.84 11.5354L26.48 9.7675L24.96 8.72285H26.8L27.36 6.87463Z" fill="currentcolor"/>
<path d="M22.7199 2.21387L23.2799 4.0621H25.2L23.6799 5.10676L24.2399 6.87464L22.7199 5.82999L21.1999 6.87464L21.8399 5.10676L20.3199 4.0621H22.1599L22.7199 2.21387Z" fill="currentcolor"/>
<path d="M9.27999 25.1158L8.72 26.8837H6.80005L8.32001 28.0087L7.76003 29.7766L9.27999 28.6516L10.8 29.7766L10.16 28.0087L11.6799 26.8837H9.83998L9.27999 25.1158Z" fill="currentcolor"/>
<path d="M4.63991 20.4551L4.07991 22.223H2.15991L3.67991 23.348L3.11991 25.1159L4.63991 23.9908L6.15992 25.1159L5.51992 23.348L7.03992 22.223H5.19992L4.63991 20.4551Z" fill="currentcolor"/>
<path d="M2.4 13.7051L1.84 15.473H0L1.52 16.598L0.960001 18.3659L2.4 17.2408L3.92 18.3659L3.36 16.598L4.88 15.473H3.04L2.4 13.7051Z" fill="currentcolor"/>
<path d="M4.63991 6.87463L4.07991 8.72285H2.15991L3.67991 9.7675L3.11991 11.5354L4.63991 10.4907L6.15992 11.5354L5.51992 9.7675L7.03992 8.72285H5.19992L4.63991 6.87463Z" fill="currentcolor"/>
<path d="M9.27999 2.21387L8.72 4.0621H6.80005L8.32001 5.10676L7.76003 6.87464L9.27999 5.82999L10.8 6.87464L10.16 5.10676L11.6799 4.0621H9.83998L9.27999 2.21387Z" fill="currentcolor"/>
</g>
<defs>
<clipPath id="clip0_15_264">
<rect width="32" height="31.9823" fill="white" transform="translate(0 0.0441895)"/>
</clipPath>
</defs>
</svg>
